<svg id="Layer_1" enable-background="new 0 0 520 520" height="512" viewBox="0 0 520 520" width="512" xmlns="http://www.w3.org/2000/svg"><g id="_x33_36_x2C__Add_x2C__Card_x2C__Credit_x2C__Plus_x2C__Credit"><g><path d="m394.83 332.5c18.05 0 32.67-14.62 32.67-32.67v-97.33h-360v97.33c0 18.05 14.63 32.67 32.67 32.67z" fill="#c6d4df"/><circle cx="442.5" cy="412.5" fill="#68ca44" r="30"/><path d="m147.5 42.5c11.05 0 20 8.95 20 20s-8.95 20-20 20-20-8.95-20-20 8.95-20 20-20z" fill="#68ca44"/><path d="m345.811 332.5c-11.92-9.391-26.961-15-43.311-15s-31.391 5.609-43.311 15c-16.25 12.82-26.689 32.689-26.689 55 0 38.66 31.34 70 70 70s70-31.34 70-70c0-22.311-10.439-42.18-26.689-55z" fill="#3d4459"/><path d="m340 375v25h-25v25h-25v-25h-25v-25h25v-25h25v25z" fill="#00d2d2"/><path d="m282.5 285.75v3.5c0 4.561-3.689 8.25-8.25 8.25h-103.5c-4.56 0-8.25-3.689-8.25-8.25v-3.5c0-4.561 3.69-8.25 8.25-8.25h103.5c4.561 0 8.25 3.689 8.25 8.25z" fill="#26c6da"/><path d="m142.5 285.75v3.5c0 4.561-3.69 8.25-8.25 8.25h-23.5c-4.56 0-8.25-3.689-8.25-8.25v-3.5c0-4.561 3.69-8.25 8.25-8.25h23.5c4.56 0 8.25 3.689 8.25 8.25z" fill="#26c6da"/><path d="m427.5 140.17v22.33h-360v-22.33c0-18.04 14.63-32.67 32.67-32.67h294.66c18.05 0 32.67 14.63 32.67 32.67z" fill="#c6d4df"/><path d="m67.5 162.5h360v40h-360z" fill="#3f4751"/><g fill="#f0915a"><circle cx="465" cy="95" r="7.5"/><circle cx="462.5" cy="310" r="7.5"/><circle cx="390" cy="440" r="7.5"/><circle cx="240" cy="57.5" r="7.5"/><circle cx="235" cy="470" r="7.5"/><circle cx="105" cy="465" r="7.5"/><circle cx="55" cy="97.5" r="7.5"/></g><g fill="#a5c3dc"><path d="m112.5 237.5h-10c-2.761 0-5 2.239-5 5s2.239 5 5 5h10c2.761 0 5-2.239 5-5s-2.239-5-5-5z"/><path d="m137.5 237.5h-10c-2.761 0-5 2.239-5 5s2.239 5 5 5h10c2.761 0 5-2.239 5-5s-2.239-5-5-5z"/><path d="m162.5 237.5h-10c-2.761 0-5 2.239-5 5s2.239 5 5 5h10c2.761 0 5-2.239 5-5s-2.239-5-5-5z"/><path d="m187.5 237.5h-10c-2.761 0-5 2.239-5 5s2.239 5 5 5h10c2.761 0 5-2.239 5-5s-2.239-5-5-5z"/><path d="m212.5 237.5h-10c-2.761 0-5 2.239-5 5s2.239 5 5 5h10c2.761 0 5-2.239 5-5s-2.239-5-5-5z"/></g><g fill="#3d4459"><path d="m197.5 372.5h-65c-2.761 0-5-2.238-5-5s2.239-5 5-5h65c2.761 0 5 2.238 5 5s-2.239 5-5 5z"/><path d="m177.5 392.5h-85c-2.761 0-5-2.238-5-5s2.239-5 5-5h85c2.761 0 5 2.238 5 5s-2.239 5-5 5z"/><path d="m207.5 412.5h-65c-2.761 0-5-2.238-5-5s2.239-5 5-5h65c2.761 0 5 2.238 5 5s-2.239 5-5 5z"/><path d="m197.5 432.5h-130c-2.761 0-5-2.238-5-5s2.239-5 5-5h130c2.761 0 5 2.238 5 5s-2.239 5-5 5z"/></g></g></g></svg>