<svg enable-background="new 0 0 512 512" height="512" viewBox="0 0 512 512" width="512" xmlns="http://www.w3.org/2000/svg"><g id="_x39_44_x2C__Arrows_x2C__Switch_x2C__Left_x2C__Right"><g><g><path d="m31 171c0 16.561 13.43 30 30 30s30-13.439 30-30c0-16.57-13.43-30-30-30s-30 13.43-30 30z" fill="#d7e816"/><path d="m441 391c0 11.04 8.95 20 20 20s20-8.96 20-20c0-11.05-8.95-20-20-20s-20 8.95-20 20z" fill="#d7e816"/><path d="m371 481v-130.91c0-11.05-4.48-21.05-11.72-28.289-7.24-7.23-17.24-11.711-28.28-11.711h-180v-59.09l-120 109.54 120 109.55v-60h137.69c25.27 0 48.609 13.45 61.3 35.301 10.33 17.779 21.01 35.609 21.01 35.609z" fill="#5cbeff"/><path d="m361 261 120-109.55-120-109.54v60h-137.69c-25.27 0-48.61-13.45-61.3-35.301-10.33-17.779-21.01-35.609-21.01-35.609v130.91c0 11.04 4.48 21.04 11.72 28.279 7.24 7.24 17.24 11.721 28.28 11.721h180z" fill="#3256c1"/><g fill="#f6edff"><path d="m201.52 464.16c1.74 5.24 7.41 8.07 12.65 6.33 5.23-1.75 8.07-7.41 6.32-12.65-1.75-5.239-7.41-8.069-12.65-6.329-5.24 1.75-8.07 7.409-6.32 12.649z"/><path d="m411.52 454.16c1.74 5.24 7.41 8.07 12.65 6.32 5.23-1.75 8.07-7.41 6.32-12.65s-7.41-8.069-12.65-6.319c-5.24 1.739-8.07 7.409-6.32 12.649z"/><path d="m431.51 294.16c1.75 5.24 7.41 8.07 12.65 6.32s8.07-7.41 6.32-12.65c-1.74-5.24-7.41-8.069-12.65-6.319-5.23 1.739-8.07 7.409-6.32 12.649z"/><path d="m241.51 284.16c1.75 5.24 7.41 8.07 12.65 6.32s8.07-7.41 6.32-12.65c-1.74-5.24-7.411-8.069-12.65-6.319-5.23 1.739-8.07 7.409-6.32 12.649z"/><path d="m71.51 254.16c1.75 5.24 7.41 8.07 12.65 6.32s8.07-7.41 6.32-12.65c-1.74-5.24-7.41-8.07-12.65-6.32-5.23 1.74-8.07 7.41-6.32 12.65z"/><path d="m91.51 74.16c1.75 5.24 7.41 8.07 12.65 6.33 5.24-1.75 8.07-7.41 6.32-12.65-1.74-5.24-7.41-8.07-12.65-6.33-5.23 1.75-8.07 7.41-6.32 12.65z"/><path d="m301.51 64.16c1.75 5.24 7.41 8.07 12.65 6.33 5.24-1.75 8.07-7.41 6.32-12.65-1.74-5.24-7.41-8.07-12.65-6.33-5.23 1.75-8.07 7.41-6.32 12.65z"/></g></g></g></g></svg>