<?xml version="1.0"?>
<svg xmlns="http://www.w3.org/2000/svg" xmlns:xlink="http://www.w3.org/1999/xlink" xmlns:svgjs="http://svgjs.com/svgjs" version="1.1" width="512" height="512" x="0" y="0" viewBox="0 0 481.882 481.882" style="enable-background:new 0 0 512 512" xml:space="preserve" class=""><g>
<path xmlns="http://www.w3.org/2000/svg" style="" d="M481.882,391.529c0,8.32-6.746,15.059-15.059,15.059H15.059C6.746,406.588,0,399.849,0,391.529  V90.353c0-8.312,6.746-15.059,15.059-15.059h451.765c8.312,0,15.059,6.746,15.059,15.059V391.529z" fill="#fbc02d" data-original="#fbc02d" class=""/>
<path xmlns="http://www.w3.org/2000/svg" style="" d="M15.059,75.294C6.746,75.294,0,82.04,0,90.353v301.176c0,4.006,1.589,7.62,4.134,10.315  L330.684,75.294H15.059z" fill="#fdd835" data-original="#fdd835" class=""/>
<path xmlns="http://www.w3.org/2000/svg" style="" d="M436.706,210.824c0,8.32-6.746,15.059-15.059,15.059h-82.824c-8.312,0-15.059-6.739-15.059-15.059  v-60.235c0-8.312,6.746-15.059,15.059-15.059h82.824c8.312,0,15.059,6.746,15.059,15.059V210.824z" fill="#fff59d" data-original="#fff59d" class=""/>
<path xmlns="http://www.w3.org/2000/svg" style="" d="M166.182,240.941c-15.654,0-29.606-6.912-39.123-17.732c8.087-9.261,13.041-21.263,13.041-34.432  s-4.954-25.171-13.041-34.432c9.525-10.827,23.469-17.732,39.123-17.732c28.823,0,52.171,23.341,52.171,52.164  C218.353,217.592,195.004,240.941,166.182,240.941z" fill="#ffee58" data-original="#ffee58" class=""/>
<path xmlns="http://www.w3.org/2000/svg" style="" d="M127.059,223.209c-8.087-9.261-13.041-21.263-13.041-34.432s4.954-25.171,13.041-34.432  c8.087,9.261,13.041,21.263,13.041,34.432C140.1,201.946,135.145,213.948,127.059,223.209z" fill="#fb8c00" data-original="#fb8c00"/>
<path xmlns="http://www.w3.org/2000/svg" style="" d="M87.936,240.941c-28.823,0-52.171-23.349-52.171-52.171s23.349-52.164,52.171-52.164  c15.654,0,29.606,6.904,39.123,17.732c-8.087,9.261-13.041,21.263-13.041,34.432c0,13.176,4.954,25.171,13.041,34.432  C117.534,234.029,103.59,240.941,87.936,240.941z" fill="#ef5350" data-original="#ef5350" class=""/>
<g xmlns="http://www.w3.org/2000/svg">
	<path style="" d="M52.856,365.944v-6.046c0-0.881,0.392-1.498,1.498-1.498c1.099,0,1.498,0.617,1.498,1.498v7.544   c0,1.084-0.723,1.498-1.498,1.498H42.541c-0.783,0-1.498-0.429-1.498-1.498s0.723-1.498,1.498-1.498h4.405v-17.333h-4.405   c-0.783,0-1.498-0.422-1.498-1.491c0-1.092,0.723-1.498,1.498-1.498h7.401v20.322L52.856,365.944L52.856,365.944z" fill="#fbc02d" data-original="#212121" class=""/>
	<path style="" d="M65.611,365.944h10.315c0.783,0,1.498,0.429,1.498,1.498c0,1.092-0.723,1.498-1.498,1.498h-13.32   v-9.773c0-2.259,1.137-3.388,3.388-3.388h8.425v-7.168H64.105c-0.783,0-1.498-0.422-1.498-1.491c0-1.092,0.723-1.498,1.498-1.498   h9.954c0.994,0,1.687,0.151,2.432,0.836c0.836,0.783,0.926,1.589,0.926,2.665v6.144c0,1.077-0.09,1.882-0.926,2.665   c-0.753,0.693-1.438,0.836-2.432,0.836h-8.456L65.611,365.944L65.611,365.944z" fill="#fbc02d" data-original="#212121" class=""/>
	<path style="" d="M85.692,348.612c-0.783,0-1.498-0.422-1.498-1.491c0-1.092,0.723-1.498,1.498-1.498H96   c1.717,0,2.997,1.28,2.997,2.989v5.76c0,1.19-0.233,2.063-1.167,2.914c0.934,0.836,1.167,1.709,1.167,2.906v5.76   c0,1.724-1.288,2.997-2.997,2.997H85.692c-0.783,0-1.498-0.429-1.498-1.498s0.723-1.498,1.498-1.498H96v-4.984   c0-1.679-0.655-2.191-1.491-2.191h-5.873c-0.783,0-1.498-0.414-1.498-1.491s0.715-1.498,1.498-1.498h5.873   c0.836,0,1.491-0.504,1.491-2.191v-4.984H85.692z" fill="#fbc02d" data-original="#212121" class=""/>
	<path style="" d="M116.088,358.325v-8.659c0-0.753,0.354-1.498,1.491-1.498c1.137,0,1.498,0.753,1.498,1.498v8.659   c0.783,0,1.498,0.414,1.498,1.498c0,1.084-0.723,1.498-1.498,1.498v6.114c0,0.956-0.422,1.498-1.498,1.498   c-1.077,0-1.491-0.542-1.491-1.498v-6.114h-8.824v-14.208c0-0.768,0.369-1.498,1.498-1.498c1.137,0,1.498,0.745,1.498,1.498v11.204   h5.828V358.325z" fill="#fbc02d" data-original="#212121" class=""/>
	<path style="" d="M154.888,355.78h5.519c0.956,0,1.679,0.151,2.394,0.836c0.836,0.783,0.926,1.498,0.926,2.545v6.43   c0,0.919-0.09,1.589-0.723,2.342c-0.753,0.888-1.528,1.009-2.605,1.009h-6.648c-0.783,0-1.227-0.203-1.98-0.542l-1.137-0.497   c-0.806-0.369-1.709-0.632-1.709-1.679c0-0.783,0.655-1.498,1.431-1.498c0.361,0,0.632,0.098,0.964,0.233l0.896,0.384   c0.422,0.181,1.107,0.602,1.589,0.602h6.927v-7.168h-8.847v-13.161h10.345c0.783,0,1.498,0.414,1.498,1.498   c0,1.077-0.723,1.491-1.498,1.491h-7.349L154.888,355.78L154.888,355.78z" fill="#fbc02d" data-original="#212121" class=""/>
	<path style="" d="M173.5,358.325h10.014c1.498,0,1.8,0.625,1.8,2.018v6.716c0,1.408-0.602,1.89-1.95,1.89h-10.918   c-1.408,0-1.95-0.512-1.95-1.89v-19.93c0-0.693,0.241-1.498,1.295-1.498h1.792c0.783,0,1.416,0.723,1.416,1.498   c0,0.896-0.632,1.498-1.498,1.498V358.325z M173.5,361.329v4.608h8.817v-4.608H173.5z" fill="#fbc02d" data-original="#212121" class=""/>
	<path style="" d="M195.072,348.612c0,0.655-0.535,1.491-1.498,1.491c-0.956,0-1.498-0.836-1.498-1.491v-1.491   c0-0.663,0.542-1.498,1.498-1.498h13.32v8.689c0,1.062,0.03,1.167-0.806,1.882l-4.201,3.629c-0.783,0.685-0.836,0.753-0.836,1.792   v5.82c0,0.956-0.422,1.498-1.498,1.498s-1.498-0.542-1.498-1.498v-7.221c0-0.986,0.03-1.084,0.783-1.739l4.141-3.569   c0.994-0.873,0.926-0.828,0.926-2.153v-4.141H195.072z" fill="#fbc02d" data-original="#212121" class=""/>
	<path style="" d="M223.97,345.615c1.016,0,1.498,0.715,1.498,1.498v8.651c0.926,0,1.649,0.324,2.191,0.828   c0.535,0.512,0.806,1.265,0.806,2.191v7.145c0,1.822-1.137,2.989-2.997,2.989h-8.817c-1.86,0-2.997-1.167-2.997-2.989v-7.145   c0-0.919,0.271-1.679,0.806-2.191c0.535-0.504,1.257-0.828,2.191-0.828v-8.651c0-0.783,0.474-1.498,1.498-1.498H223.97z    M225.468,365.944v-7.168h-8.817v7.16h8.817V365.944z M222.472,355.78v-7.168h-2.816v7.168H222.472z" fill="#fbc02d" data-original="#212121" class=""/>
	<path style="" d="M268.627,356.277h-10.315c-0.836,0-1.498-0.723-1.498-1.491v-7.672c0-0.783,0.663-1.498,1.498-1.498   h11.814c0.828,0,1.498,0.715,1.498,1.498v20.322c0,0.806-0.602,1.498-1.498,1.498h-1.498c-0.888,0-1.491-0.693-1.491-1.498   c0-0.904,0.632-1.491,1.491-1.491V356.277z M268.627,353.288v-4.676h-8.817v4.676L268.627,353.288L268.627,353.288z" fill="#fbc02d" data-original="#212121" class=""/>
	<path style="" d="M288.708,345.615c1.016,0,1.498,0.715,1.498,1.498v8.651c0.926,0,1.649,0.324,2.184,0.828   c0.535,0.512,0.813,1.265,0.813,2.191v7.145c0,1.822-1.145,2.989-2.997,2.989h-8.817c-1.86,0-2.989-1.167-2.989-2.989v-7.145   c0-0.919,0.264-1.679,0.798-2.191c0.535-0.504,1.257-0.828,2.191-0.828v-8.651c0-0.783,0.474-1.498,1.491-1.498H288.708z    M290.206,365.944v-7.168h-8.817v7.16h8.817V365.944z M287.209,355.78v-7.168h-2.824v7.168H287.209z" fill="#fbc02d" data-original="#212121" class=""/>
	<path style="" d="M302.953,348.612c0,0.655-0.527,1.491-1.491,1.491c-0.956,0-1.498-0.836-1.498-1.491v-1.491   c0-0.663,0.542-1.498,1.498-1.498h13.32v8.689c0,1.062,0.03,1.167-0.798,1.882l-4.201,3.629c-0.783,0.685-0.836,0.753-0.836,1.792   v5.82c0,0.956-0.429,1.498-1.498,1.498c-1.069,0-1.498-0.542-1.498-1.498v-7.221c0-0.986,0.03-1.084,0.783-1.739l4.149-3.569   c0.986-0.873,0.926-0.828,0.926-2.153v-4.141H302.953z" fill="#fbc02d" data-original="#212121" class=""/>
	<path style="" d="M324.548,358.325h10.014c1.498,0,1.792,0.625,1.792,2.018v6.716c0,1.408-0.595,1.89-1.95,1.89   h-10.91c-1.416,0-1.95-0.512-1.95-1.89v-19.93c0-0.693,0.233-1.498,1.288-1.498h1.8c0.783,0,1.416,0.723,1.416,1.498   c0,0.896-0.632,1.498-1.498,1.498V358.325z M324.548,361.329v4.608h8.809v-4.608H324.548z" fill="#fbc02d" data-original="#212121" class=""/>
	<path style="" d="M370.665,355.78h5.512c0.964,0,1.679,0.151,2.394,0.836c0.836,0.783,0.926,1.498,0.926,2.545v6.43   c0,0.919-0.09,1.589-0.723,2.342c-0.745,0.888-1.521,1.009-2.605,1.009h-6.656c-0.783,0-1.235-0.203-1.988-0.542l-1.129-0.497   c-0.806-0.369-1.724-0.632-1.724-1.679c0-0.783,0.663-1.498,1.438-1.498c0.361,0,0.625,0.098,0.956,0.233l0.904,0.384   c0.422,0.181,1.099,0.602,1.589,0.602h6.927v-7.168h-8.847v-13.161h10.345c0.783,0,1.491,0.414,1.491,1.498   c0,1.077-0.723,1.491-1.491,1.491h-7.349v7.168h0.03V355.78z" fill="#fbc02d" data-original="#212121" class=""/>
	<path style="" d="M396.589,358.325v-8.659c0-0.753,0.369-1.498,1.498-1.498s1.498,0.753,1.498,1.498v8.659   c0.783,0,1.498,0.414,1.498,1.498c0,1.084-0.73,1.498-1.498,1.498v6.114c0,0.956-0.429,1.498-1.498,1.498   c-1.069,0-1.498-0.542-1.498-1.498v-6.114h-8.809v-14.208c0-0.768,0.354-1.498,1.498-1.498c1.129,0,1.483,0.745,1.483,1.498v11.204   h5.828V358.325z" fill="#fbc02d" data-original="#212121" class=""/>
	<path style="" d="M409.352,348.612c-0.783,0-1.498-0.422-1.498-1.491c0-1.092,0.723-1.498,1.498-1.498h10.308   c1.717,0,2.997,1.28,2.997,2.989v5.76c0,1.19-0.233,2.063-1.16,2.914c0.926,0.836,1.16,1.709,1.16,2.906v5.76   c0,1.724-1.295,2.997-2.997,2.997h-10.308c-0.783,0-1.498-0.429-1.498-1.498s0.723-1.498,1.498-1.498h10.308v-4.984   c0-1.679-0.663-2.191-1.491-2.191h-5.873c-0.783,0-1.498-0.414-1.498-1.491s0.723-1.498,1.498-1.498h5.873   c0.828,0,1.491-0.504,1.491-2.191v-4.984H409.352z" fill="#fbc02d" data-original="#212121" class=""/>
	<path style="" d="M432.429,365.944h10.315c0.783,0,1.498,0.429,1.498,1.498c0,1.092-0.73,1.498-1.498,1.498h-13.32   v-9.773c0-2.259,1.144-3.388,3.396-3.388h8.41v-7.168h-10.308c-0.783,0-1.498-0.422-1.498-1.491c0-1.092,0.723-1.498,1.498-1.498   h9.954c0.986,0,1.679,0.151,2.424,0.836c0.843,0.776,0.934,1.589,0.934,2.658v6.144c0,1.077-0.09,1.882-0.926,2.665   c-0.753,0.693-1.438,0.836-2.424,0.836h-8.456V365.944L432.429,365.944z" fill="#fbc02d" data-original="#212121" class=""/>
</g>
<path xmlns="http://www.w3.org/2000/svg" style="" d="M436.706,173.176v-15.059h-30.118c0-8.312-6.746-15.059-15.059-15.059h-22.588  c-8.313,0-15.059,6.746-15.059,15.059h-30.118v15.059h30.118v15.059h-30.118v15.059h30.118c0,8.312,6.746,15.059,15.059,15.059  h22.588c8.312,0,15.059-6.746,15.059-15.059h30.118v-15.059h-30.118v-15.059H436.706z" fill="#ffee58" data-original="#ffee58" class=""/>
<g xmlns="http://www.w3.org/2000/svg">
	<path style="" d="M32.663,303.729v-0.09C32.663,295.04,39.1,288,48.264,288c4.661,0,7.725,1.385,10.368,3.411   c0.557,0.437,1.032,1.16,1.032,2.116c0,1.468-1.16,2.59-2.635,2.59c-0.738,0-1.25-0.256-1.596-0.512   c-2.071-1.687-4.322-2.718-7.213-2.718c-5.752,0-9.984,4.751-9.984,10.662v0.09c0,5.911,4.194,10.714,9.984,10.714   c3.192,0,5.353-1.039,7.56-2.891c0.384-0.339,0.949-0.602,1.596-0.602c1.34,0,2.507,1.114,2.507,2.455   c0,0.821-0.392,1.468-0.866,1.912c-2.854,2.507-6.091,4.058-10.97,4.058C39.236,319.277,32.663,312.41,32.663,303.729z" fill="#fff9c4" data-original="#fff9c4" class=""/>
	<path style="" d="M65.867,291.2c0-1.506,1.167-2.665,2.673-2.665h10.805c3.802,0,6.784,1.114,8.727,3.012   c1.604,1.649,2.507,3.9,2.507,6.528v0.09c0,4.841-2.808,7.77-6.874,9.028l5.798,7.296c0.512,0.648,0.866,1.22,0.866,2.04   c0,1.461-1.257,2.47-2.552,2.47c-1.212,0-1.995-0.565-2.598-1.393l-7.341-9.382h-6.701v8.132c0,1.453-1.167,2.635-2.643,2.635   c-1.506,0-2.673-1.175-2.673-2.635L65.867,291.2L65.867,291.2z M78.953,303.518c3.81,0,6.219-1.995,6.219-5.06v-0.09   c0-3.238-2.334-5.015-6.264-5.015h-7.725v10.15h7.77V303.518z" fill="#fff9c4" data-original="#fff9c4" class=""/>
	<path style="" d="M97.084,316.085v-24.892c0-1.506,1.167-2.665,2.68-2.665h17.574c1.303,0,2.379,1.084,2.379,2.364   c0,1.34-1.084,2.379-2.379,2.379H102.4v7.853h13.003c1.295,0,2.379,1.092,2.379,2.409c0,1.31-1.092,2.342-2.379,2.342H102.4v8.117   h15.164c1.295,0,2.372,1.092,2.372,2.379c0,1.34-1.084,2.364-2.372,2.364h-17.8C98.251,318.758,97.084,317.606,97.084,316.085z" fill="#fff9c4" data-original="#fff9c4" class=""/>
	<path style="" d="M126.005,291.2c0-1.506,1.167-2.665,2.68-2.665h8.591c9.51,0,16.075,6.513,16.075,15.029v0.09   c0,8.508-6.566,15.119-16.075,15.119h-8.591c-1.513,0-2.68-1.16-2.68-2.673V291.2z M137.276,313.924   c6.355,0,10.504-4.277,10.504-10.195v-0.09c0-5.918-4.149-10.278-10.504-10.278h-5.956v20.563L137.276,313.924L137.276,313.924z" fill="#fff9c4" data-original="#fff9c4" class=""/>
	<path style="" d="M160.075,290.944c0-1.468,1.16-2.643,2.673-2.643c1.468,0,2.635,1.167,2.635,2.643v25.412   c0,1.453-1.16,2.635-2.635,2.635c-1.513,0-2.673-1.175-2.673-2.635V290.944z" fill="#fff9c4" data-original="#fff9c4" class=""/>
	<path style="" d="M180.887,293.459h-7.349c-1.385,0-2.462-1.122-2.462-2.47c0-1.34,1.084-2.455,2.462-2.455h20.088   c1.34,0,2.417,1.114,2.417,2.455c0,1.348-1.084,2.47-2.417,2.47h-7.386v22.897c0,1.453-1.205,2.635-2.673,2.635   c-1.468,0-2.673-1.175-2.673-2.635L180.887,293.459L180.887,293.459z" fill="#fff9c4" data-original="#fff9c4" class=""/>
	<path style="" d="M213.045,303.729v-0.09c0-8.599,6.438-15.639,15.593-15.639c4.668,0,7.725,1.385,10.368,3.411   c0.565,0.437,1.039,1.16,1.039,2.116c0,1.468-1.16,2.59-2.635,2.59c-0.738,0-1.257-0.256-1.604-0.512   c-2.071-1.687-4.314-2.718-7.213-2.718c-5.745,0-9.976,4.751-9.976,10.662v0.09c0,5.911,4.194,10.714,9.976,10.714   c3.2,0,5.361-1.039,7.56-2.891c0.392-0.339,0.949-0.602,1.596-0.602c1.348,0,2.515,1.114,2.515,2.455   c0,0.821-0.399,1.468-0.866,1.912c-2.854,2.507-6.091,4.058-10.97,4.058C219.61,319.277,213.045,312.41,213.045,303.729z" fill="#fff9c4" data-original="#fff9c4" class=""/>
	<path style="" d="M244.525,315.302l11.226-25.058c0.602-1.34,1.694-2.161,3.208-2.161h0.248   c1.513,0,2.56,0.821,3.162,2.161l11.219,25.058c0.218,0.392,0.309,0.783,0.309,1.122c0,1.416-1.092,2.552-2.507,2.552   c-1.257,0-2.108-0.745-2.598-1.867l-2.455-5.655h-14.69l-2.545,5.835c-0.444,1.077-1.34,1.687-2.47,1.687   c-1.385,0-2.455-1.092-2.455-2.47C244.179,316.13,244.307,315.738,244.525,315.302z M264.312,306.748l-5.308-12.228l-5.323,12.228   H264.312z" fill="#fff9c4" data-original="#fff9c4" class=""/>
	<path style="" d="M279.62,291.2c0-1.506,1.167-2.665,2.673-2.665h10.805c3.802,0,6.784,1.114,8.727,3.012   c1.604,1.649,2.507,3.9,2.507,6.528v0.09c0,4.841-2.809,7.77-6.874,9.028l5.798,7.296c0.512,0.648,0.866,1.22,0.866,2.04   c0,1.461-1.25,2.47-2.552,2.47c-1.212,0-1.995-0.565-2.598-1.393l-7.341-9.382h-6.709v8.132c0,1.453-1.16,2.635-2.643,2.635   c-1.506,0-2.665-1.175-2.665-2.635V291.2H279.62z M292.706,303.518c3.81,0,6.219-1.995,6.219-5.06v-0.09   c0-3.238-2.342-5.015-6.264-5.015h-7.725v10.15h7.77V303.518z" fill="#fff9c4" data-original="#fff9c4" class=""/>
	<path style="" d="M310.837,291.2c0-1.506,1.16-2.665,2.673-2.665h8.591c9.517,0,16.075,6.513,16.075,15.029v0.09   c0,8.508-6.558,15.119-16.075,15.119h-8.591c-1.513,0-2.673-1.16-2.673-2.673V291.2z M322.101,313.924   c6.362,0,10.511-4.277,10.511-10.195v-0.09c0-5.918-4.149-10.278-10.511-10.278h-5.956v20.563L322.101,313.924L322.101,313.924z" fill="#fff9c4" data-original="#fff9c4" class=""/>
</g>
<g xmlns="http://www.w3.org/2000/svg">
</g>
<g xmlns="http://www.w3.org/2000/svg">
</g>
<g xmlns="http://www.w3.org/2000/svg">
</g>
<g xmlns="http://www.w3.org/2000/svg">
</g>
<g xmlns="http://www.w3.org/2000/svg">
</g>
<g xmlns="http://www.w3.org/2000/svg">
</g>
<g xmlns="http://www.w3.org/2000/svg">
</g>
<g xmlns="http://www.w3.org/2000/svg">
</g>
<g xmlns="http://www.w3.org/2000/svg">
</g>
<g xmlns="http://www.w3.org/2000/svg">
</g>
<g xmlns="http://www.w3.org/2000/svg">
</g>
<g xmlns="http://www.w3.org/2000/svg">
</g>
<g xmlns="http://www.w3.org/2000/svg">
</g>
<g xmlns="http://www.w3.org/2000/svg">
</g>
<g xmlns="http://www.w3.org/2000/svg">
</g>
</g></svg>
