<svg id="Layer_1" enable-background="new 0 0 64 64" height="512" viewBox="0 0 64 64" width="512" xmlns="http://www.w3.org/2000/svg"><g><path d="m32 6c12.15 0 22 9.85 22 22s-9.85 22-22 22-22-9.85-22-22 9.85-22 22-22zm9.5 14.5v-5h-7v-5h-5v5h-.5c-4.14 0-7.5 3.36-7.5 7.5s3.36 7.5 7.5 7.5h6c1.38 0 2.5 1.12 2.5 2.5s-1.12 2.5-2.5 2.5h-12.5v5h7v5h5v-5h.5c4.14 0 7.5-3.36 7.5-7.5s-3.36-7.5-7.5-7.5h-6c-1.38 0-2.5-1.12-2.5-2.5s1.12-2.5 2.5-2.5z" fill="#f4971e"/><path d="m42 53.08v8.12c.94-.34 1.88-.73 2.82-1.17.75-.35 1.48-.74 2.18-1.17v-8.413c-1.559 1.043-3.231 1.93-5 2.633z" fill="#d37e18"/><path d="m51 47.18v8.666c1.53-1.417 2.875-3.013 4-4.756v-8.95c-1.13 1.84-2.47 3.53-4 5.04z" fill="#d37e18"/><path d="m47 50.447v8.413c1.45-.869 2.782-1.886 4-3.014v-8.666c-1.223 1.213-2.564 2.306-4 3.267z" fill="#f4971e"/><path d="m32 55v8c1.64 0 3.3-.14 5-.45v-8.02c-1.62.31-3.29.47-5 .47z" fill="#d37e18"/><path d="m37 54.53v8.02c1.65-.29 3.32-.74 5-1.35v-8.12c-1.59.64-3.27 1.13-5 1.45z" fill="#f4971e"/><path d="m13 47.18v7.989c1.225 1.214 2.559 2.318 4 3.281v-8.003c-1.436-.961-2.777-2.054-4-3.267z" fill="#d37e18"/><path d="m9 42.14v8c1.13 1.839 2.479 3.521 4 5.029v-7.989c-1.53-1.51-2.87-3.2-4-5.04z" fill="#f4971e"/><path d="m17 50.447v8.003c1.56 1.05 3.23 1.93 5 2.63v-8c-1.769-.703-3.441-1.59-5-2.633z" fill="#f4971e"/><path d="m22 53.08v8c1.59.64 3.27 1.13 5 1.45v-8c-1.73-.32-3.41-.81-5-1.45z" fill="#d37e18"/><path d="m27 54.53v8c1.62.31 3.29.47 5 .47v-8c-1.71 0-3.38-.16-5-.47z" fill="#f4971e"/><path d="m9 42.14v8c-2.54-4.11-4-8.96-4-14.14v-8c0 5.19 1.46 10.03 4 14.14z" fill="#d37e18"/><path d="m55 42.14c2.54-4.11 4-8.95 4-14.14v9.44c0 4.93-1.43 9.66-4 13.65z" fill="#f4971e"/><path d="m32 50c12.15 0 22-9.85 22-22s-9.85-22-22-22-22 9.85-22 22 9.85 22 22 22zm23-7.86c-1.13 1.84-2.47 3.53-4 5.04-2.55 2.53-5.6 4.55-9 5.9-1.59.64-3.27 1.13-5 1.45-1.62.31-3.29.47-5 .47s-3.38-.16-5-.47c-1.73-.32-3.41-.81-5-1.45-3.4-1.35-6.45-3.37-9-5.9-1.53-1.51-2.87-3.2-4-5.04-2.54-4.11-4-8.95-4-14.14 0-14.91 12.09-27 27-27s27 12.09 27 27c0 5.19-1.46 10.03-4 14.14z" fill="#ffbe1d"/><path d="m32 3c14.52 0 26.361 11.467 26.971 25.838.008-.28.029-.556.029-.838 0-14.91-12.09-27-27-27s-27 12.09-27 27c0 .282.021.558.029.838.61-14.371 12.451-25.838 26.971-25.838z" fill="#fcd38b"/><path d="m32 52c12.15 0 22-9.85 22-22 0-.335-.01-.668-.025-1-.524 11.686-10.16 21-21.975 21s-21.451-9.314-21.975-21c-.015.332-.025.665-.025 1 0 12.15 9.85 22 22 22z" fill="#fcd38b"/><path d="m41.5 15.5v5h-12.5c-1.38 0-2.5 1.12-2.5 2.5s1.12 2.5 2.5 2.5h6c4.14 0 7.5 3.36 7.5 7.5s-3.36 7.5-7.5 7.5h-.5v5h-5v-5h-7v-5h12.5c1.38 0 2.5-1.12 2.5-2.5s-1.12-2.5-2.5-2.5h-6c-4.14 0-7.5-3.36-7.5-7.5s3.36-7.5 7.5-7.5h.5v-5h5v5z" fill="#f7c257"/><path d="m32 9c11.645 0 21.172 9.05 21.943 20.5.034-.496.057-.995.057-1.5 0-12.15-9.85-22-22-22s-22 9.85-22 22c0 .505.023 1.004.057 1.5.771-11.45 10.298-20.5 21.943-20.5z" fill="#d37e18"/><circle cx="43.5" cy="41.5" fill="#d37e18" r="1.5"/><circle cx="17.5" cy="18.5" fill="#ffbe1d" r="1.5"/><circle cx="47" cy="37" fill="#d37e18" r="2"/><circle cx="16" cy="24" fill="#ffbe1d" r="2"/></g></svg>