<svg height="512" viewBox="0 0 64 64" width="512" xmlns="http://www.w3.org/2000/svg"><g fill="#78b9eb"><path d="m61 7v6h-58v-6a2.006 2.006 0 0 1 2-2h54a2.006 2.006 0 0 1 2 2z"/><path d="m61 19v19a2.006 2.006 0 0 1 -2 2h-6.7a12.905 12.905 0 0 0 4.11-6.13 12.99 12.99 0 0 0 -5.49-14.87z"/><path d="m31.41 33.25a13.005 13.005 0 0 1 5.61-14.21l-.02-.04h-34v19a2.006 2.006 0 0 0 2 2h30.7a12.93 12.93 0 0 1 -4.29-6.75zm-12.41 2.75a5 5 0 0 1 -3.5-1.42 5 5 0 1 1 0-7.16 5 5 0 1 1 3.5 8.58z"/><path d="m47 46v10a3 3 0 0 1 -6 0v-10z"/></g><path d="m54.536 27.878-1.414-1.414-2.122 2.122-2.122-2.122-1.378 1.379-1.378-1.379-2.122 2.122-2.122-2.122-1.378 1.379-1.378-1.379-2.122 2.122-2.122-2.122-1.414 1.414 2.122 2.122-2.122 2.122 1.414 1.414 2.122-2.122 2.122 2.122 1.378-1.379 1.378 1.379 2.122-2.122 2.122 2.122 1.378-1.379 1.378 1.379 2.122-2.122 2.122 2.122 1.414-1.414-2.122-2.122zm-14.036 4.208-2.086-2.086 2.086-2.086 2.086 2.086zm7 0-2.086-2.086 2.086-2.086 2.086 2.086z" fill="#006df0"/><path d="m59 4h-54a3 3 0 0 0 -3 3v31a3 3 0 0 0 3 3h30.368a13.945 13.945 0 0 0 5.632 2.668v1.332a1 1 0 0 0 -1 1v10a4 4 0 0 0 8 0v-10a1 1 0 0 0 -1-1v-1.332a13.945 13.945 0 0 0 5.632-2.668h6.368a3 3 0 0 0 3-3v-31a3 3 0 0 0 -3-3zm-54 2h54a1 1 0 0 1 1 1v5h-56v-5a1 1 0 0 1 1-1zm39 36a12 12 0 1 1 12-12 12.013 12.013 0 0 1 -12 12zm0-26a13.894 13.894 0 0 0 -7.174 2h-32.826v-4h56v4h-8.826a13.894 13.894 0 0 0 -7.174-2zm-40 22v-18h30.221a13.953 13.953 0 0 0 -.929 19h-28.292a1 1 0 0 1 -1-1zm42 18a2 2 0 0 1 -4 0v-9h4zm-1-11h-2v-1.051c.332.024.662.051 1 .051s.668-.027 1-.051zm14-6h-4.292a13.953 13.953 0 0 0 -.929-19h6.221v18a1 1 0 0 1 -1 1z" fill="#006df0"/><path d="m19 25a5.965 5.965 0 0 0 -3.5 1.136 6 6 0 1 0 0 9.728 6 6 0 1 0 3.5-10.864zm-4 6a3.943 3.943 0 0 1 .5-1.9 3.845 3.845 0 0 1 0 3.792 3.943 3.943 0 0 1 -.5-1.892zm-7 0a4 4 0 0 1 4-4 3.954 3.954 0 0 1 2.067.593 5.973 5.973 0 0 0 0 6.814 3.954 3.954 0 0 1 -2.067.593 4 4 0 0 1 -4-4zm11 4a3.954 3.954 0 0 1 -2.067-.593 5.973 5.973 0 0 0 0-6.814 3.954 3.954 0 0 1 2.067-.593 4 4 0 0 1 0 8z" fill="#006df0"/></svg>