<?xml version="1.0" encoding="iso-8859-1"?>
<!-- Generator: Adobe Illustrator 19.0.0, SVG Export Plug-In . SVG Version: 6.00 Build 0)  -->
<svg version="1.1" id="Capa_1" xmlns="http://www.w3.org/2000/svg" xmlns:xlink="http://www.w3.org/1999/xlink" x="0px" y="0px"
	 viewBox="0 0 511.798 511.798" style="enable-background:new 0 0 511.798 511.798;" xml:space="preserve">
<g>
	<path style="fill:#F6BB42;" d="M131.194,185.497c-4.236-4.479-13.799-14.686-18.438-19.484
		C80.37,132.507,39.984,90.765,39.984,43.983c0-13.276,10.718-23.99,23.99-23.99c12.476,0,22.632,9.438,23.834,21.511
		c0.078,0.801,0.156,1.679,0.156,2.479h15.994c0-1.198-0.078-2.319-0.238-3.439C102.042,20.07,84.849,3.998,63.974,3.998
		c-22.147,0-39.984,17.915-39.984,39.984c0,79.422,95.088,138.758,115.974,179.438h9.528L131.194,185.497z"/>
	<path style="fill:#F6BB42;" d="M139.964,223.42l3.979,12.487C143.627,231.959,142.213,227.793,139.964,223.42z"/>
</g>
<g style="opacity:0.5;">
	<path style="fill:#FFFFFF;" d="M68.074,4.388c-1.367-0.141-2.698-0.391-4.1-0.391c-22.147,0-39.984,17.915-39.984,39.984
		c0,79.422,95.088,138.758,115.974,179.438h7.997C127.075,182.74,31.987,123.404,31.987,43.982
		C31.987,23.244,47.797,6.376,68.074,4.388z"/>
</g>
<g>
	<path style="fill:#F6BB42;" d="M380.6,185.497c4.24-4.479,13.807-14.686,18.445-19.484c32.378-33.506,72.769-75.248,72.769-122.03
		c0-13.276-10.715-23.99-23.99-23.99c-12.479,0-22.632,9.438-23.835,21.511c-0.078,0.801-0.156,1.679-0.156,2.479h-15.994
		c0-1.198,0.078-2.319,0.234-3.439c1.687-20.473,18.875-36.545,39.75-36.545c22.147,0,39.984,17.915,39.984,39.984
		c0,79.422-95.088,138.758-115.971,179.438h-9.527L380.6,185.497z"/>
	<path style="fill:#F6BB42;" d="M371.837,223.42l-3.982,12.487C368.168,231.959,369.588,227.793,371.837,223.42z"/>
</g>
<g>
	<path style="fill:#656D78;" d="M343.865,475.812H167.933v-7.997v-95.962h39.984h95.963h39.984v95.962L343.865,475.812
		L343.865,475.812z M207.918,451.822h95.963c0-4.396,3.6-7.997,7.996-7.997v-31.987c-4.396,0-7.996-3.601-7.996-7.997h-95.963
		c0,4.396-3.596,7.997-7.997,7.997v31.987C204.322,443.825,207.918,447.425,207.918,451.822z"/>
	<polygon style="fill:#656D78;" points="167.933,475.812 343.865,475.812 359.858,475.812 359.858,507.799 151.94,507.799 
		151.94,475.812 	"/>
</g>
<g style="opacity:0.2;">
	<polygon points="181.467,371.853 330.331,371.853 343.865,371.853 343.865,475.812 167.933,475.812 167.933,371.853 	"/>
</g>
<path style="fill:#FFCE54;" d="M207.918,403.84h95.963c0,4.396,3.6,7.997,7.996,7.997v31.987c-4.396,0-7.996,3.601-7.996,7.997
	h-95.963c0-4.396-3.596-7.997-7.997-7.997v-31.987C204.322,411.837,207.918,408.237,207.918,403.84z"/>
<path style="fill:#F6BB42;" d="M255.899,299.881h0.082c4.639-1.202,9.195-2.483,13.515-3.92l2.396,7.2c0,0,0,36.704,31.988,60.694
	v7.997h-95.963v-7.997c31.987-23.99,31.987-60.694,31.987-60.694l2.402-7.2C246.703,297.398,251.182,298.679,255.899,299.881z"/>
<polygon style="fill:#ED5565;" points="313.877,126.989 284.934,155.138 291.806,194.962 256.059,176.169 220.315,194.962 
	227.113,155.138 198.164,126.989 238.148,121.151 256.059,84.927 273.892,121.151 "/>
<g style="opacity:0.3;">
	<polygon style="fill:#FFFFFF;" points="229.101,190.342 235.11,155.138 206.161,126.989 238.148,121.151 198.164,126.989 
		227.113,155.138 220.315,194.962 	"/>
</g>
<g style="opacity:0.2;">
	<polygon points="282.935,190.342 276.929,155.138 305.879,126.989 273.892,121.151 313.877,126.989 284.926,155.138 
		291.728,194.962 	"/>
</g>
<path style="fill:#FFCE54;" d="M112.198,19.992h287.645c0,5.998,0.242,14.232,0.406,24.15c0.476,42.542-1.281,115.955-34.955,174.33
	c-19.43,33.749-49.496,62.456-95.798,77.489c-4.319,1.437-8.876,2.718-13.515,3.92h-0.082c-4.717-1.202-9.196-2.483-13.592-3.92
	c-63.815-20.789-96.763-67.493-113.557-117.392c-16.552-49.102-17.513-101.159-17.11-134.428c0.16-9.918,0.398-18.153,0.398-24.15
	L112.198,19.992L112.198,19.992z M284.934,155.138l28.942-28.149l-39.984-5.838l-17.833-36.224l-17.911,36.224l-39.984,5.838
	l28.95,28.149l-6.798,39.824l35.744-18.793l35.747,18.793L284.934,155.138z"/>
<g style="opacity:0.5;">
	<path style="fill:#FFFFFF;" d="M266.301,295.962c-63.819-20.789-96.767-67.493-113.561-117.392
		c-16.552-49.102-17.513-101.159-17.111-134.428c0.16-9.918,0.398-18.153,0.398-24.15h-23.83h-0.16
		c0,5.998-0.238,14.232-0.398,24.15c-0.402,33.269,0.559,85.326,17.11,134.428c16.794,49.898,49.742,96.603,113.557,117.392
		c4.396,1.437,8.875,2.718,13.592,3.92h0.082c4.092-1.062,8.063-2.218,11.921-3.459
		C267.378,296.258,266.816,296.133,266.301,295.962z"/>
</g>
<g style="opacity:0.2;">
	<path d="M255.938,292.259c57.063-22.296,87.333-66.567,103.201-113.689c16.549-49.102,17.509-101.159,17.103-134.428
		c-0.156-9.918-0.391-18.153-0.391-24.15h23.827h0.164c0,5.998,0.234,14.232,0.391,24.15c0.406,33.269-0.555,85.326-17.103,134.428
		c-16.799,49.898-49.746,96.603-113.564,117.392c-0.547,0.18-1.094,0.359-1.641,0.531L255.938,292.259z"/>
</g>
<g style="opacity:0.2;">
	<path d="M255.981,299.881h-0.082c-4.717-1.202-9.196-2.483-13.592-3.92l-2.378,7.138c0.805,0.273,1.563,0.594,2.378,0.858
		c4.396,1.438,8.875,2.719,13.592,3.921h0.082c4.639-1.202,9.195-2.483,13.515-3.921c0.819-0.265,1.554-0.616,2.365-0.89
		l-2.365-7.106C265.176,297.398,260.62,298.679,255.981,299.881z"/>
</g>
<g style="opacity:0.5;">
	<path style="fill:#FFFFFF;" d="M242.307,303.958c-0.816-0.265-1.574-0.585-2.378-0.858l-0.023,0.063c0,0,0,36.704-31.987,60.694
		h7.997c27.208-20.405,31.261-49.926,31.866-58.32C245.973,305.004,244.076,304.536,242.307,303.958z"/>
</g>
<g style="opacity:0.2;">
	<path d="M269.488,303.989c0.819-0.265,1.577-0.585,2.381-0.858l0.023,0.063c0,0,0,36.704,31.988,60.694h-7.997
		c-27.208-20.405-31.261-49.926-31.862-58.32C265.825,305.036,267.722,304.567,269.488,303.989z"/>
</g>
<g style="opacity:0.2;">
	<rect x="167.929" y="467.819" width="175.93" height="7.997"/>
</g>
<g style="opacity:0.2;">
	<rect x="167.929" y="371.849" style="fill:#FFFFFF;" width="7.997" height="95.96"/>
</g>
<g style="opacity:0.2;">
	<rect x="151.939" y="475.809" style="fill:#FFFFFF;" width="7.997" height="31.987"/>
</g>
<g style="opacity:0.2;">
	<rect x="351.859" y="475.809" width="7.997" height="31.987"/>
</g>
<g style="opacity:0.2;">
	<rect x="335.869" y="371.849" width="7.997" height="95.96"/>
</g>
<g style="opacity:0.2;">
	<rect x="207.919" y="363.859" width="95.96" height="7.997"/>
</g>
<g style="opacity:0.5;">
	<path style="fill:#FFFFFF;" d="M199.921,411.837v31.987c4.401,0,7.997,3.601,7.997,7.997V403.84
		C207.918,408.237,204.322,411.837,199.921,411.837z"/>
</g>
<g style="opacity:0.2;">
	<path d="M311.877,443.825v-31.987c-4.404,0-7.996-3.601-7.996-7.997v47.981C303.88,447.425,307.472,443.825,311.877,443.825z"/>
</g>
<g>
	<path style="fill:#3A3847;" d="M255.977,303.879c-1.777,0-3.401-1.194-3.866-2.998c-0.554-2.14,0.73-4.318,2.87-4.873
		c4.546-1.172,9.017-2.429,13.249-3.843c40.836-13.252,72.308-38.719,93.604-75.688c31.965-55.424,34.947-124.873,34.416-172.288
		l-0.203-10.324c-0.109-5.416-0.203-10.089-0.203-13.873c0-2.21,1.789-3.999,3.999-3.999s3.998,1.789,3.998,3.999
		c0,3.741,0.094,8.356,0.203,13.709l0.203,10.375c0.547,48.38-2.546,119.273-35.485,176.396
		c-22.305,38.734-55.291,65.416-98.032,79.293c-4.373,1.461-9.017,2.765-13.749,3.991
		C256.645,303.84,256.309,303.879,255.977,303.879z"/>
	<path style="fill:#3A3847;" d="M255.981,303.879c-0.332,0-0.746-0.047-1.066-0.124c-4.807-1.219-9.371-2.53-13.854-3.999
		c-56.447-18.383-95.51-58.73-116.099-119.91c-16.408-48.672-17.743-100.785-17.322-135.751l0.195-10.273
		c0.109-5.408,0.203-10.062,0.203-13.83c0-2.21,1.789-3.999,3.999-3.999s3.998,1.789,3.998,3.999c0,3.811-0.094,8.524-0.207,13.99
		l-0.191,10.227c-0.418,34.365,0.882,85.568,16.899,133.084c19.743,58.657,57.091,97.301,111.007,114.865
		c4.287,1.406,8.649,2.655,13.241,3.819c1.792,0.406,3.155,1.999,3.155,3.904C259.94,302.091,258.191,303.879,255.981,303.879z"/>
	<path style="fill:#3A3847;" d="M399.842,23.99H112.198c-2.21,0-3.999-1.788-3.999-3.998s1.789-3.999,3.999-3.999h287.645
		c2.21,0,3.998,1.789,3.998,3.999S402.052,23.99,399.842,23.99z"/>
	<path style="fill:#3A3847;" d="M367.855,239.905c-0.094,0-0.188-0.004-0.281-0.012c-2.202-0.156-3.865-2.069-3.701-4.271
		c0.343-4.85,2.107-10.027,5.38-15.833c7.458-13.428,21.796-28.247,38.399-45.404c33.924-35.068,76.157-78.711,76.157-130.402
		c0-2.21,1.788-3.998,3.999-3.998c2.21,0,3.998,1.788,3.998,3.998c0,54.924-43.475,99.859-78.406,135.962
		c-16.213,16.751-30.207,31.218-37.174,43.749c-2.686,4.779-4.123,8.859-4.389,12.499
		C371.697,238.296,369.932,239.905,367.855,239.905z"/>
	<path style="fill:#3A3847;" d="M385.692,183.927c-0.984,0-1.976-0.363-2.749-1.094c-1.609-1.519-1.672-4.049-0.156-5.654
		c4.248-4.486,8.73-9.137,13.385-13.948c31.965-33.069,71.645-74.123,71.645-119.25c0-2.21,1.788-3.998,3.998-3.998
		s3.998,1.788,3.998,3.998c0,48.36-40.921,90.703-73.814,124.725c-4.701,4.873-9.176,9.5-13.4,13.971
		C387.816,183.509,386.753,183.927,385.692,183.927z"/>
	<path style="fill:#3A3847;" d="M407.839,47.981c-2.211,0-3.999-1.789-3.999-3.999C403.84,19.73,423.568,0,447.823,0
		c2.21,0,3.998,1.788,3.998,3.998s-1.788,3.999-3.998,3.999c-19.844,0-35.986,16.142-35.986,35.985
		C411.837,46.192,410.049,47.981,407.839,47.981z"/>
	<path style="fill:#3A3847;" d="M487.808,47.981c-2.211,0-3.999-1.789-3.999-3.999c0-19.844-16.142-35.985-35.985-35.985
		c-2.211,0-3.999-1.789-3.999-3.999S445.613,0,447.824,0c24.256,0,43.982,19.73,43.982,43.982
		C491.806,46.192,490.018,47.981,487.808,47.981z"/>
	<path style="fill:#3A3847;" d="M423.833,47.981c-2.21,0-3.998-1.789-3.998-3.999c0-15.431,12.558-27.989,27.989-27.989
		c2.21,0,3.998,1.789,3.998,3.999s-1.788,3.998-3.998,3.998c-11.027,0-19.992,8.97-19.992,19.992
		C427.832,46.192,426.043,47.981,423.833,47.981z"/>
	<path style="fill:#3A3847;" d="M471.814,47.981c-2.21,0-3.998-1.789-3.998-3.999c0-11.022-8.966-19.992-19.992-19.992
		c-2.211,0-3.999-1.788-3.999-3.998s1.788-3.999,3.999-3.999c15.432,0,27.988,12.558,27.988,27.989
		C475.812,46.192,474.024,47.981,471.814,47.981z"/>
	<path style="fill:#3A3847;" d="M385.692,257.578c-12.081,0-21.913-9.793-21.913-21.831c0-2.21,1.788-3.998,3.998-3.998
		s3.998,1.788,3.998,3.998c0,7.63,6.248,13.834,13.917,13.834c5.638,0,10.229-4.592,10.229-10.234c0-4.1-3.334-7.438-7.434-7.438
		c-2.819,0-5.115,2.296-5.115,5.119c0,2.21-1.789,3.999-3.999,3.999s-3.998-1.789-3.998-3.999c0-7.231,5.88-13.116,13.112-13.116
		c8.512,0,15.431,6.923,15.431,15.435C403.919,249.398,395.75,257.578,385.692,257.578z"/>
	<path style="fill:#3A3847;" d="M143.939,239.905c-2.062,0-3.811-1.585-3.983-3.678c-1.175-14.584-19.875-33.909-41.527-56.283
		C63.482,143.834,19.992,98.89,19.992,43.982c0-2.21,1.788-3.998,3.998-3.998s3.999,1.788,3.999,3.998
		c0,51.675,42.241,95.326,76.185,130.402c23.659,24.447,42.347,43.76,43.756,61.202c0.175,2.198-1.464,4.127-3.667,4.307
		C144.154,239.901,144.045,239.905,143.939,239.905z"/>
	<path style="fill:#3A3847;" d="M126.11,183.927c-1.058,0-2.116-0.418-2.905-1.25c-4.225-4.471-8.695-9.098-13.322-13.885
		c-32.972-34.115-73.898-76.454-73.898-124.81c0-2.21,1.789-3.998,3.999-3.998s3.998,1.788,3.998,3.998
		c0,45.123,39.68,86.173,71.562,119.16c4.736,4.9,9.223,9.551,13.471,14.038c1.519,1.605,1.449,4.135-0.156,5.654
		C128.086,183.564,127.098,183.927,126.11,183.927z"/>
	<path style="fill:#3A3847;" d="M103.959,47.981c-2.21,0-3.998-1.789-3.998-3.999c0-1.003-0.063-1.937-0.199-2.874
		C98.223,22.436,82.514,7.997,63.974,7.997c-2.21,0-3.998-1.789-3.998-3.999S61.764,0,63.974,0
		c22.671,0,41.882,17.665,43.733,40.215c0.156,1.065,0.25,2.374,0.25,3.768C107.957,46.192,106.169,47.981,103.959,47.981z"/>
	<path style="fill:#3A3847;" d="M23.99,47.981c-2.21,0-3.998-1.789-3.998-3.999C19.992,19.73,39.722,0,63.974,0
		c2.21,0,3.999,1.788,3.999,3.998s-1.789,3.999-3.999,3.999c-19.844,0-35.985,16.142-35.985,35.985
		C27.989,46.192,26.2,47.981,23.99,47.981z"/>
	<path style="fill:#3A3847;" d="M87.965,47.981c-2.21,0-3.999-1.789-3.999-3.999c0-0.675-0.07-1.417-0.137-2.093
		C82.814,31.69,74.274,23.99,63.974,23.99c-2.21,0-3.998-1.788-3.998-3.998s1.788-3.999,3.998-3.999
		c14.432,0,26.388,10.796,27.813,25.111c0.09,0.937,0.176,1.952,0.176,2.877C91.963,46.192,90.175,47.981,87.965,47.981z"/>
	<path style="fill:#3A3847;" d="M39.984,47.981c-2.21,0-3.999-1.789-3.999-3.999c0-15.431,12.558-27.989,27.989-27.989
		c2.21,0,3.999,1.789,3.999,3.999s-1.789,3.998-3.999,3.998c-11.022,0-19.992,8.97-19.992,19.992
		C43.982,46.192,42.194,47.981,39.984,47.981z"/>
	<path style="fill:#3A3847;" d="M126.11,257.578c-10.051,0-18.231-8.18-18.231-18.231c0-8.512,6.923-15.435,15.435-15.435
		c7.232,0,13.112,5.884,13.112,13.116c0,2.21-1.788,3.999-3.998,3.999s-3.999-1.789-3.999-3.999c0-2.823-2.296-5.119-5.115-5.119
		c-4.1,0-7.438,3.338-7.438,7.438c0,5.642,4.592,10.234,10.234,10.234c7.673,0,13.917-6.205,13.917-13.834
		c0-2.21,1.789-3.998,3.999-3.998s3.998,1.788,3.998,3.998C148.023,247.785,138.191,257.578,126.11,257.578z"/>
	<path style="fill:#3A3847;" d="M303.88,367.855c-0.844,0-1.68-0.266-2.398-0.797c-33.205-24.912-33.588-62.319-33.588-63.896
		c0-2.202,1.78-3.991,3.99-3.999c0.008,0,0.008,0,0.008,0c2.203,0,3.991,1.789,3.999,3.991c0,0.352,0.469,35.064,30.387,57.501
		c1.772,1.327,2.132,3.834,0.804,5.6C306.293,367.308,305.098,367.855,303.88,367.855z"/>
	<path style="fill:#3A3847;" d="M207.921,367.855c-1.218,0-2.417-0.547-3.202-1.601c-1.328-1.766-0.968-4.272,0.8-5.6
		c30.039-22.522,30.387-57.149,30.387-57.493c0-2.21,1.788-3.999,3.998-3.999s3.999,1.789,3.999,3.999
		c0,1.577-0.383,38.984-33.589,63.896C209.597,367.589,208.757,367.855,207.921,367.855z"/>
	<path style="fill:#3A3847;" d="M343.865,471.814c-2.211,0-3.999-1.788-3.999-3.999v-91.963H171.932v91.963
		c0,2.211-1.789,3.999-3.999,3.999c-2.21,0-3.998-1.788-3.998-3.999v-95.962c0-2.21,1.788-3.998,3.998-3.998h175.932
		c2.209,0,3.998,1.788,3.998,3.998v95.962C347.863,470.026,346.074,471.814,343.865,471.814z"/>
	<path style="fill:#3A3847;" d="M359.858,511.798H151.94c-2.21,0-3.999-1.788-3.999-3.999v-31.987c0-2.21,1.789-3.998,3.999-3.998
		h207.918c2.21,0,3.999,1.788,3.999,3.998v31.987C363.857,510.01,362.068,511.798,359.858,511.798z M155.938,503.801H355.86v-23.99
		H155.938V503.801z"/>
	<path style="fill:#3A3847;" d="M303.88,455.821h-95.963c-2.21,0-3.998-1.789-3.998-3.999c0-2.202-1.792-3.998-3.999-3.998
		c-2.21,0-3.999-1.789-3.999-3.999v-31.987c0-2.21,1.788-3.998,3.999-3.998c2.206,0,3.999-1.796,3.999-3.999
		c0-2.21,1.788-3.998,3.998-3.998h95.963c2.21,0,3.998,1.788,3.998,3.998c0,2.203,1.796,3.999,3.998,3.999
		c2.211,0,3.999,1.788,3.999,3.998v31.987c0,2.21-1.788,3.999-3.999,3.999c-2.202,0-3.998,1.796-3.998,3.998
		C307.878,454.032,306.09,455.821,303.88,455.821z M211.233,447.824h89.336c1.202-3.405,3.904-6.107,7.31-7.31v-25.365
		c-3.405-1.203-6.107-3.905-7.31-7.31h-89.336c-1.207,3.404-3.909,6.106-7.313,7.31v25.365
		C207.324,441.716,210.026,444.419,211.233,447.824z"/>
	<path style="fill:#3A3847;" d="M287.886,423.833h-63.975c-2.21,0-3.999-1.788-3.999-3.998s1.789-3.998,3.999-3.998h63.975
		c2.21,0,3.998,1.788,3.998,3.998S290.096,423.833,287.886,423.833z"/>
	<path style="fill:#3A3847;" d="M271.892,439.827h-31.987c-2.21,0-3.998-1.789-3.998-3.998c0-2.211,1.788-3.999,3.998-3.999h31.987
		c2.211,0,3.999,1.788,3.999,3.999C275.891,438.038,274.103,439.827,271.892,439.827z"/>
	<path style="fill:#3A3847;" d="M343.865,495.804H167.933c-2.21,0-3.998-1.788-3.998-3.998s1.788-3.999,3.998-3.999h175.932
		c2.209,0,3.998,1.789,3.998,3.999S346.074,495.804,343.865,495.804z"/>
	<path style="fill:#3A3847;" d="M291.806,198.961c-0.64,0-1.28-0.152-1.858-0.461l-33.889-17.813L222.178,198.5
		c-1.347,0.719-2.975,0.598-4.213-0.301c-1.229-0.894-1.847-2.409-1.589-3.908l6.442-37.751l-27.442-26.685
		c-1.089-1.063-1.483-2.651-1.015-4.101c0.468-1.444,1.718-2.503,3.225-2.721l37.907-5.537l16.981-34.342
		c0.676-1.363,2.066-2.226,3.585-2.226h0.004c1.522,0,2.913,0.867,3.585,2.234l16.898,34.338l37.907,5.533
		c1.508,0.218,2.757,1.277,3.226,2.721c0.469,1.449,0.07,3.038-1.016,4.101l-27.434,26.681l6.513,37.747
		c0.266,1.499-0.352,3.018-1.585,3.912C293.462,198.703,292.634,198.961,291.806,198.961z M206.762,129.773l23.139,22.499
		c0.945,0.917,1.375,2.241,1.152,3.537l-5.436,31.847l28.579-15.025c1.171-0.617,2.554-0.617,3.725,0l28.559,15.018l-5.489-31.832
		c-0.227-1.3,0.211-2.628,1.147-3.545l23.14-22.499l-31.964-4.667c-1.305-0.187-2.429-1.007-3.015-2.19l-14.248-28.954
		l-14.319,28.961c-0.582,1.179-1.707,1.996-3.006,2.183L206.762,129.773z"/>
</g>
<g style="opacity:0.2;">
	<path d="M443.723,4.388c1.367-0.141,2.694-0.391,4.101-0.391c22.147,0,39.984,17.915,39.984,39.984
		c0,79.422-95.088,138.758-115.971,179.438h-7.996c20.882-40.68,115.97-100.016,115.97-179.438
		C479.811,23.244,464.004,6.376,443.723,4.388z"/>
</g>
<g>
</g>
<g>
</g>
<g>
</g>
<g>
</g>
<g>
</g>
<g>
</g>
<g>
</g>
<g>
</g>
<g>
</g>
<g>
</g>
<g>
</g>
<g>
</g>
<g>
</g>
<g>
</g>
<g>
</g>
</svg>
