<svg id="Capa_1" enable-background="new 0 0 510.938 510.938" height="512" viewBox="0 0 510.938 510.938" width="512" xmlns="http://www.w3.org/2000/svg"><g><g><path d="m444.589 497.284-29.543-27.978c-1.944-1.841-4.988-1.841-6.932 0l-34.583 32.751c-1.944 1.841-4.988 1.841-6.932 0l-34.583-32.751c-1.944-1.841-4.988-1.841-6.932 0l-34.584 32.752c-1.944 1.841-4.988 1.841-6.932 0l-31.916-30.225c-3.44-3.258-8.827-3.258-12.267 0l-31.916 30.225c-1.944 1.841-4.988 1.841-6.932 0l-34.583-32.751c-1.944-1.841-4.988-1.841-6.932 0l-29.543 27.978c-3.213 3.043-8.507.765-8.507-3.66v-476.169c0-4.452 5.35-6.718 8.548-3.62l29.46 28.541c1.955 1.894 5.06 1.894 7.015 0l34.501-33.424c1.955-1.894 5.06-1.894 7.015 0l34.501 33.424c1.955 1.894 5.06 1.894 7.015 0l34.501-33.424c1.955-1.894 5.06-1.894 7.015 0l34.501 33.424c1.955 1.894 5.06 1.894 7.015 0l34.501-33.424c1.955-1.894 5.06-1.894 7.015 0l34.501 33.424c1.955 1.894 5.06 1.894 7.015 0l29.46-28.541c3.198-3.098 8.548-.832 8.548 3.62v476.168c-.004 4.425-5.298 6.703-8.51 3.66z" fill="#edf4ff"/><path d="m129.519 13.831 16.45 15.94v451.9l-16.49 15.61c-3.21 3.05-8.51.77-8.51-3.66v-476.17c0-4.45 5.35-6.71 8.55-3.62z" fill="#dbeaff"/><circle cx="147.911" cy="331.508" fill="#ffe07d" r="90.067"/><g fill="#ffd064"><path d="m160.409 420.701c-4.08.58-8.26.87-12.5.87-49.74 0-90.07-40.32-90.07-90.06 0-49.75 40.33-90.07 90.07-90.07 4.24 0 8.42.29 12.5.87-43.83 6.08-77.57 43.69-77.57 89.2 0 45.501 33.74 83.11 77.57 89.19z"/><circle cx="147.909" cy="331.508" r="53.106"/></g></g><g><path d="m383.953 304.25c3.048 2.759 7.754 2.553 10.546-.475 2.809-3.045 2.617-7.79-.428-10.598-.43-.397-7.662-6.913-19.501-8.673v-7.354c0-4.142-3.357-7.5-7.5-7.5s-7.5 3.358-7.5 7.5v7.931c-1.136.249-2.289.537-3.468.892-10.794 3.251-18.86 12.49-21.05 24.11-1.996 10.593 1.396 20.807 8.853 26.655 3.964 3.109 8.9 5.957 15.665 8.966v45.442c-5.896-.424-9.94-1.845-16.611-6.209-3.467-2.269-8.113-1.296-10.382 2.17-2.268 3.466-1.296 8.115 2.171 10.382 9.676 6.329 16.28 8.207 24.822 8.681v8.236c0 4.142 3.357 7.5 7.5 7.5s7.5-3.358 7.5-7.5v-8.83c16.965-3.306 26.874-17.284 29.069-30.341 2.819-16.769-5.952-31.349-22.348-37.144-2.208-.781-4.469-1.6-6.722-2.453v-35.874c5.699 1.347 9.093 4.232 9.384 4.486zm-7.661 47.983c14.017 4.955 13.153 16.955 12.555 20.514-1.171 6.964-6.033 14.348-14.277 17.259v-38.39c.572.206 1.133.409 1.722.617zm-23.129-27.298c-3.034-2.379-4.325-7.006-3.37-12.075.859-4.559 3.881-10.041 9.777-12.227v28.387c-2.413-1.304-4.596-2.664-6.407-4.085z"/><path d="m452.947 5.908c-4.646-1.967-9.991-.972-13.618 2.541l-27.752 26.885-32.775-31.749c-4.899-4.777-12.578-4.777-17.464-.017l-32.791 31.765-32.775-31.75c-4.901-4.777-12.58-4.775-17.464-.015l-32.791 31.765-32.775-31.75c-4.898-4.774-12.577-4.775-17.463-.015l-32.791 31.765-27.752-26.884c-3.626-3.512-8.971-4.508-13.618-2.541-4.647 1.968-7.65 6.501-7.65 11.548v82.33c0 4.142 3.357 7.5 7.5 7.5s7.5-3.358 7.5-7.5v-76.525l25.29 24.5c4.894 4.746 12.563 4.745 17.459.001l32.786-31.76 32.785 31.758c4.894 4.746 12.563 4.745 17.458.001l32.786-31.76 32.786 31.759c4.894 4.746 12.563 4.745 17.458.001l32.786-31.76 32.785 31.758c4.895 4.746 12.564 4.745 17.459.001l25.291-24.501v333.705c0 4.142 3.357 7.5 7.5 7.5s7.5-3.358 7.5-7.5v-339.508c0-5.047-3.003-9.58-7.65-11.548z"/><path d="m453.097 384.465c-4.143 0-7.5 3.358-7.5 7.5v95.946l-25.403-24.062c-4.83-4.557-12.4-4.56-17.244.01l-32.888 31.147-32.898-31.157c-4.833-4.559-12.404-4.559-17.243.01l-32.888 31.147-30.224-28.623c-6.342-5.992-16.265-5.989-22.589.006l-30.218 28.617-32.895-31.145c-4.823-4.574-12.396-4.581-17.248-.003l-25.393 24.051v-60.783c6.285 1.276 12.786 1.948 19.441 1.948 53.799 0 97.567-43.769 97.567-97.567s-43.769-97.567-97.567-97.567c-6.656 0-13.157.672-19.441 1.948v-101.103c0-4.142-3.357-7.5-7.5-7.5s-7.5 3.358-7.5 7.5v105.44c-36.852 13.951-63.126 49.604-63.126 91.283s26.274 77.333 63.126 91.283v70.834c0 5.013 2.978 9.534 7.587 11.517 4.612 1.983 9.941 1.035 13.58-2.412l27.849-26.377 32.893 31.143c4.836 4.589 12.415 4.589 17.249.005l31.912-30.222c.549-.521 1.413-.518 1.964.002l31.905 30.216c4.835 4.587 12.414 4.587 17.249.003l32.893-31.152 32.889 31.148c2.42 2.295 5.524 3.442 8.628 3.441 3.103 0 6.205-1.146 8.62-3.438l32.893-31.152 27.854 26.382c3.643 3.449 8.973 4.395 13.58 2.412 4.609-1.983 7.587-6.503 7.587-11.517v-101.66c-.001-4.141-3.358-7.499-7.501-7.499zm-387.756-52.957c0-45.528 37.04-82.567 82.567-82.567s82.567 37.04 82.567 82.567-37.04 82.567-82.567 82.567-82.567-37.039-82.567-82.567z"/><path d="m185.875 152.652h202.314c4.143 0 7.5-3.358 7.5-7.5s-3.357-7.5-7.5-7.5h-202.314c-4.143 0-7.5 3.358-7.5 7.5s3.357 7.5 7.5 7.5z"/><path d="m185.875 198.019h202.314c4.143 0 7.5-3.358 7.5-7.5s-3.357-7.5-7.5-7.5h-202.314c-4.143 0-7.5 3.358-7.5 7.5s3.357 7.5 7.5 7.5z"/><path d="m185.875 107.286h202.314c4.143 0 7.5-3.358 7.5-7.5s-3.357-7.5-7.5-7.5h-202.314c-4.143 0-7.5 3.358-7.5 7.5s3.357 7.5 7.5 7.5z"/><path d="m208.515 331.508c0-33.418-27.188-60.606-60.606-60.606s-60.606 27.188-60.606 60.606 27.188 60.606 60.606 60.606 60.606-27.187 60.606-60.606zm-106.213 0c0-25.147 20.459-45.606 45.606-45.606s45.606 20.459 45.606 45.606-20.459 45.606-45.606 45.606-45.606-20.459-45.606-45.606z"/></g></g></svg>