<svg id="Layer_1" enable-background="new 0 0 512 512" height="512" viewBox="0 0 512 512" width="512" xmlns="http://www.w3.org/2000/svg"><g><g><path d="m464 288h-96v-32h128c0 17.673-14.327 32-32 32z" fill="#a07337"/></g><g><path d="m432 328h-64v-32h96c0 17.673-14.327 32-32 32z" fill="#a07337"/></g><g><path d="m400 368h-32v-32h64c0 17.673-14.327 32-32 32z" fill="#a07337"/></g><g><path d="m48 288h96v-32h-128c0 17.673 14.327 32 32 32z" fill="#a07337"/></g><g><path d="m80 328h64v-32h-96c0 17.673 14.327 32 32 32z" fill="#a07337"/></g><g><path d="m112 368h32v-32h-64c0 17.673 14.327 32 32 32z" fill="#a07337"/></g><g><circle cx="256" cy="336" fill="#466932" r="144"/></g><g><circle cx="256" cy="336" fill="#7daf41" r="112"/></g><g><path d="m259.587 262.05 21.057 42.666 47.085 6.842c3.281.477 4.591 4.509 2.217 6.823l-34.071 33.211 8.043 46.894c.56 3.268-2.869 5.759-5.804 4.217l-42.114-22.141-42.114 22.141c-2.935 1.543-6.364-.949-5.804-4.217l8.043-46.894-34.071-33.211c-2.374-2.314-1.064-6.346 2.217-6.823l47.085-6.842 21.057-42.666c1.467-2.973 5.707-2.973 7.174 0z" fill="#466932"/></g><g><path d="m352 192h-192c-8.837 0-16 7.163-16 16 0 8.837 7.163 16 16 16h192c8.837 0 16-7.163 16-16 0-8.837-7.163-16-16-16z" fill="#ffd205"/></g><g><path d="m312 112-56-56-56 56-56-56v104c0 8.837 7.163 16 16 16h192c8.837 0 16-7.163 16-16v-104z" fill="#ffd205"/></g><g><path d="m312 112-56-56v120h96c8.837 0 16-7.164 16-16v-104z" fill="#faa019"/></g><g><path d="m368 208c0 8.837-7.163 16-16 16h-96v-32h96c8.837 0 16 7.163 16 16z" fill="#faa019"/></g><g><path d="m160 176h96v16h-96z" fill="#faa019"/></g><g><path d="m256 176h96v16h-96z" fill="#f57328"/></g><g><circle cx="255.89" cy="40" fill="#faa019" r="24"/></g><g><circle cx="368" cy="40" fill="#faa019" r="24"/></g><g><circle cx="144" cy="40" fill="#faa019" r="24"/></g><g><circle cx="144" cy="32" fill="#ffd241" r="10.667"/></g><g><circle cx="256" cy="32" fill="#ffd241" r="10.667"/></g><g><circle cx="368" cy="32" fill="#ffd241" r="10.667"/></g><g><path d="m244.686 91.314-17.373 17.373c-6.248 6.248-6.248 16.379 0 22.627l17.373 17.373c6.248 6.248 16.379 6.248 22.627 0l17.373-17.373c6.248-6.248 6.248-16.379 0-22.627l-17.373-17.373c-6.248-6.249-16.378-6.249-22.627 0z" fill="#7daf41"/></g><g><path d="m284.686 108.686-17.373-17.373c-3.124-3.124-7.219-4.686-11.314-4.686v66.745c4.095 0 8.189-1.562 11.314-4.686l17.373-17.373c6.249-6.248 6.249-16.378 0-22.627z" fill="#466932"/></g></g></svg>