<?xml version="1.0"?>
<svg xmlns="http://www.w3.org/2000/svg" height="512px" viewBox="0 0 512 512" width="512px" class=""><g><path d="m512 256c0 141.378906-114.621094 256-256 256s-256-114.621094-256-256c0-139.101562 110.960938-252.300781 249.191406-255.9101562 2.257813-.0585938 4.527344-.0898438 6.808594-.0898438 2.738281 0 5.46875.0390625 8.191406.128906 137.589844 4.320313 247.808594 117.230469 247.808594 255.871094zm0 0" fill="#ffe955" data-original="#FFE955" class="" style="fill:#C7EBFF" data-old_color="#ffe955"/><path d="m512 256c0 141.378906-114.621094 256-256 256s-256-114.621094-256-256c0-46.21875 12.25-89.570312 33.679688-127 44.121093 77.070312 127.160156 129 222.320312 129s178.210938-51.929688 222.320312-129c21.429688 37.429688 33.679688 80.78125 33.679688 127zm0 0" fill="#ffd112" data-original="#FFD112" class="" style="fill:#1273EB" data-old_color="#ffd112"/><path d="m481.261719 377.699219v.011719c-43.292969 79.96875-127.941407 134.289062-225.261719 134.289062s-181.96875-54.320312-225.261719-134.289062v-.011719zm0 0" fill="#ff9f00" data-original="#FF9F00" class="" style="fill:#04458F" data-old_color="#ff9f00"/><path d="m264.191406.128906v146.0625h-15v-146.1015622c2.257813-.0585938 4.527344-.0898438 6.808594-.0898438 2.738281 0 5.46875.0390625 8.191406.128906zm0 0" fill="#20273a" data-original="#20273A"/><path d="m254.53125 146.199219-94.132812 229.457031c-.589844 1.4375-2.25 2.132812-3.671876 1.511719-26.691406-11.636719-47.417968-31.425781-60.460937-55.230469-6.140625-11.207031-10.574219-23.304688-13.125-35.851562-2.085937-10.257813-2.914063-20.8125-2.386719-31.445313.46875-9.503906 2.023438-19.066406 4.738282-28.515625 1.277343-4.476562 2.820312-8.929688 4.628906-13.335938s3.835937-8.660156 6.070312-12.742187c4.703125-8.636719 10.316406-16.535156 16.652344-23.632813 7.09375-7.9375 15.09375-14.871093 23.78125-20.707031 10.628906-7.148437 22.28125-12.640625 34.523438-16.304687 26.003906-7.789063 54.65625-7.320313 81.828124 3.140625 1.453126.558593 2.144532 2.214843 1.554688 3.65625zm0 0" fill="#b5e237" data-original="#B5E237" class=""/><path d="m253.414062 148.921875-91.898437 224.011719c-.886719 2.164062-3.898437 2.351562-5.023437.304687-.007813-.015625-.019532-.035156-.027344-.050781-7.667969-13.996094-13.207032-29.105469-16.394532-44.78125-2.601562-12.808594-3.636718-25.996094-2.980468-39.273438.589844-11.871093 2.527344-23.816406 5.921875-35.621093 1.59375-5.585938 3.523437-11.152344 5.78125-16.652344 2.257812-5.503906 4.792969-10.820313 7.582031-15.917969 5.875-10.789062 12.882812-20.652344 20.800781-29.515625 8.855469-9.914062 18.851563-18.578125 29.703125-25.867187 13.277344-8.921875 27.832032-15.785156 43.117188-20.367188.019531-.003906.039062-.011718.058594-.015625 2.238281-.667969 4.246093 1.582031 3.359374 3.746094zm0 0" fill="#95d600" data-original="#95D600"/><path d="m148.792969 236.855469c-1.800781 4.394531-3.394531 8.828125-4.769531 13.277343l-58.53125-24.011718c1.277343-4.472656 2.820312-8.925782 4.628906-13.335938 1.808594-4.40625 3.835937-8.660156 6.070312-12.742187l58.53125 24.011719c-2.148437 4.136718-4.128906 8.410156-5.929687 12.800781zm0 0" fill="#ff3445" data-original="#FF3445" class=""/><path d="m212.8125 247.886719-10.699219 26.078125-58.089843-23.832032c1.375-4.453124 2.96875-8.886718 4.769531-13.277343 1.804687-4.390625 3.78125-8.664063 5.929687-12.800781zm0 0" fill="#dd1265" data-original="#DD1265" class=""/><path d="m137.308594 308.304688-54.167969-22.222657c-2.085937-10.253906-2.914063-20.808593-2.386719-31.441406l57.269532 23.496094c-.441407 3.667969-.753907 7.335937-.933594 10.996093-.320313 6.421876-.238282 12.828126.21875 19.171876zm0 0" fill="#ff3445" data-original="#FF3445" class=""/><path d="m191.417969 300.039062-10.695313 26.074219-43.414062-17.808593c-.457032-6.34375-.539063-12.75-.21875-19.171876.179687-3.660156.492187-7.328124.933594-10.996093zm0 0" fill="#dd1265" data-original="#DD1265" class=""/><path d="m255.601562 143.585938-.019531.046874c-1.871093.484376-3.734375 1.007813-5.585937 1.558594-11.085938 3.320313-21.777344 7.839844-31.882813 13.476563l-46.964843-19.265625c26.84375-8.042969 56.507812-7.28125 84.453124 4.183594zm0 0" fill="#ff3445" data-original="#FF3445" class=""/><path d="m255.632812 143.511719-10.726562 26.148437-26.792969-10.992187c10.105469-5.636719 20.796875-10.15625 31.882813-13.476563zm0 0" fill="#dd1265" data-original="#DD1265" class=""/><path d="m190.796875 177.929688c-4.78125 4.195312-9.339844 8.699218-13.621094 13.496093-2.445312 2.730469-4.796875 5.5625-7.058593 8.484375l-57.273438-23.496094c7.09375-7.9375 15.09375-14.871093 23.78125-20.707031zm0 0" fill="#ff3445" data-original="#FF3445" class=""/><path d="m234.207031 195.738281-10.695312 26.074219-53.394531-21.902344c2.261718-2.921875 4.613281-5.753906 7.058593-8.484375 4.28125-4.796875 8.839844-9.300781 13.621094-13.496093zm0 0" fill="#dd1265" data-original="#DD1265" class=""/><path d="m159.347656 378.21875-.023437.050781c-27.941407-11.464843-49.597657-31.757812-63.058594-56.335937l46.964844 19.269531c3.234375 11.105469 7.675781 21.835937 13.234375 31.984375.929687 1.695312 1.886718 3.375 2.882812 5.03125zm0 0" fill="#ff3445" data-original="#FF3445" class=""/><path d="m170.023438 352.195312-10.726563 26.148438-2.832031-5.15625c-5.558594-10.144531-10-20.875-13.230469-31.984375zm0 0" fill="#dd1265" data-original="#DD1265" class=""/><path d="m421.546875 211.660156c1.839844 4.394532 3.414063 8.839844 4.722656 13.304688 2.777344 9.433594 4.394531 18.984375 4.933594 28.484375.597656 10.628906-.15625 21.191406-2.175781 31.457031-2.464844 12.570312-6.816406 24.695312-12.878906 35.941406-12.882813 23.894532-33.472657 43.824219-60.082032 55.640625-1.421875.632813-3.085937-.050781-3.683594-1.484375l-95.691406-228.8125c-.597656-1.433594.082032-3.097656 1.53125-3.667968 27.097656-10.644532 55.75-11.308594 81.804688-3.695313 12.265625 3.578125 23.953125 8.992187 34.632812 16.070313 8.726563 5.773437 16.773438 12.652343 23.921875 20.542968 6.386719 7.054688 12.050781 14.914063 16.8125 23.519532 2.257813 4.066406 4.316407 8.308593 6.152344 12.699218zm0 0" fill="#85af12" data-original="#85AF12" class=""/><g fill="#ba0d5c"><path d="m340.023438 138.828125-73.546876 30.757813-10.875-26c27.867188-11.65625 57.527344-12.617188 84.421876-4.757813zm0 0" data-original="#BA0D5C" class=""/><path d="m398.578125 175.441406-110.351563 46.152344-10.875-26.003906 97.304688-40.691406c8.726562 5.773437 16.777344 12.65625 23.921875 20.542968zm0 0" data-original="#BA0D5C" class=""/><path d="m421.546875 211.660156c1.839844 4.394532 3.414063 8.839844 4.722656 13.304688l-116.296875 48.632812-10.875-26.003906 116.296875-48.632812c2.257813 4.066406 4.316407 8.308593 6.152344 12.699218zm0 0" data-original="#BA0D5C" class=""/><path d="m431.203125 253.449219c.597656 10.628906-.15625 21.191406-2.175781 31.457031l-97.304688 40.695312-10.875-26zm0 0" data-original="#BA0D5C" class=""/><path d="m416.148438 320.847656c-13.296876 24.667969-34.8125 45.105469-62.675782 56.761719l-10.875-26zm0 0" data-original="#BA0D5C" class=""/></g><path d="m202.046875 426.886719 7.875-13.636719 13.636719 7.875-7.875 13.636719zm0 0" fill="#fff" data-original="#FFF" class="active-path" data-old_color="#fff" style="fill:#FFE529"/><path d="m262.09375 284.363281 7.871094-13.636719 13.636718 7.871094-7.871093 13.636719zm0 0" fill="#fff" data-original="#FFF" class="active-path" data-old_color="#fff" style="fill:#FFE529"/><path d="m285.984375 450.957031 7.871094-13.636719 13.636719 7.875-7.875 13.636719zm0 0" fill="#fff" data-original="#FFF" class="active-path" data-old_color="#fff" style="fill:#FFE529"/><path d="m178.160156 468.257812 7.875-13.636718 13.636719 7.871094-7.875 13.636718zm0 0" fill="#9e69e2" data-original="#9E69E2"/><path d="m218.105469 344.089844 7.875-13.636719 13.632812 7.875-7.871093 13.636719zm0 0" fill="#95d600" data-original="#95D600"/><path d="m258.714844 377.558594 7.871094-13.632813 13.636718 7.871094-7.871094 13.636719zm0 0" fill="#dd1265" data-original="#DD1265" class=""/><path d="m299.089844 404.71875 7.871094-13.636719 13.636718 7.875-7.871094 13.636719zm0 0" fill="#9e69e2" data-original="#9E69E2"/><path d="m199.75 352.390625c3.859375-2.21875 8.773438-.089844 9.808594 4.242187l.5 2.09375c.667968 2.785157-.605469 5.621094-3.046875 7.109376-5.410157 3.300781-8.34375 9.835937-6.789063 16.324218 1.945313 8.121094.402344 16.273438-3.65625 22.886719-2.613281 4.257813-6.273437 7.878906-10.71875 10.433594-3.863281 2.21875-8.773437.089843-9.808594-4.242188l-.503906-2.09375c-.664062-2.785156.605469-5.621093 3.050782-7.109375 5.40625-3.300781 8.339843-9.835937 6.789062-16.320312-3.199219-13.355469 3.027344-26.804688 14.375-33.324219zm0 0" fill="#95d600" data-original="#95D600"/><path d="m209.554688 356.632812.503906 2.09375c.664062 2.785157-.605469 5.621094-3.046875 7.109376-5.410157 3.300781-8.34375 9.835937-6.789063 16.324218 1.945313 8.121094.402344 16.273438-3.65625 22.886719-2.617187 4.257813-6.273437 7.878906-10.71875 10.433594-3.863281 2.21875-8.773437.089843-9.808594-4.242188 6.082032-1.457031 10.996094-5.238281 14.03125-10.179687 3.03125-4.941406 4.183594-11.039063 2.726563-17.121094-2.910156-12.171875 4.59375-24.398438 16.757813-27.304688zm0 0" fill="#85af12" data-original="#85AF12" class=""/><path d="m257.609375 227.769531c-1.953125-4.003906-7.214844-4.992187-10.5-1.984375l-1.589844 1.453125c-2.109375 1.933594-2.644531 4.992188-1.457031 7.597657 2.628906 5.765624 1.398438 12.820312-3.527344 17.320312-6.164062 5.636719-9.453125 13.253906-9.796875 21.003906-.222656 4.996094.78125 10.042969 3.03125 14.652344 1.953125 4 7.214844 4.992188 10.5 1.984375v-.003906l1.589844-1.453125c2.109375-1.933594 2.648437-4.992188 1.460937-7.597656-2.628906-5.765626-1.398437-12.820313 3.523438-17.320313 10.132812-9.269531 12.511719-23.894531 6.765625-35.652344zm0 0" fill="#dd1265" data-original="#DD1265" class=""/><path d="m247.113281 225.785156-1.589843 1.453125c-2.113282 1.933594-2.648438 4.992188-1.460938 7.597657 2.628906 5.765624 1.398438 12.820312-3.523438 17.320312-6.164062 5.636719-9.457031 13.253906-9.800781 21.003906-.222656 4.996094.78125 10.042969 3.03125 14.652344 1.953125 4 7.214844 4.992188 10.5 1.984375v-.003906c-4.222656-4.613281-6.171875-10.5-5.914062-16.292969.253906-5.792969 2.71875-11.488281 7.335937-15.710938 9.230469-8.445312 9.867188-22.777343 1.421875-32.003906zm0 0" fill="#ba0d5c" data-original="#BA0D5C" class=""/><path d="m292.847656 310.742188c-4.113281-1.703126-8.710937 1.042968-9.175781 5.472656l-.230469 2.140625c-.300781 2.847656 1.324219 5.496093 3.941406 6.65625 5.789063 2.578125 9.539063 8.679687 8.835938 15.3125-.882812 8.304687 1.699219 16.191406 6.578125 22.226562 3.140625 3.886719 7.234375 7.003907 11.972656 8.964844 4.117188 1.703125 8.710938-1.042969 9.179688-5.472656l.226562-2.144531c.300781-2.84375-1.324219-5.492188-3.9375-6.65625-5.789062-2.574219-9.542969-8.675782-8.839843-15.308594 1.453124-13.65625-6.457032-26.1875-18.550782-31.191406zm0 0" fill="#8e4fd2" data-original="#8E4FD2"/><path d="m283.671875 316.214844-.230469 2.140625c-.300781 2.847656 1.324219 5.496093 3.941406 6.65625 5.789063 2.578125 9.539063 8.679687 8.835938 15.3125-.882812 8.304687 1.699219 16.191406 6.578125 22.226562 3.140625 3.886719 7.234375 7.003907 11.972656 8.964844 4.117188 1.703125 8.710938-1.042969 9.179688-5.472656-6.222657-.660157-11.582031-3.777344-15.226563-8.285157-3.644531-4.507812-5.574218-10.40625-4.914062-16.628906 1.320312-12.441406-7.699219-23.601562-20.136719-24.914062zm0 0" fill="#9e69e2" data-original="#9E69E2"/><path d="m266.421875 417.839844c-2.023437-3.96875-7.300781-4.863282-10.53125-1.796875l-1.566406 1.480469c-2.074219 1.96875-2.554688 5.039062-1.320313 7.621093 2.730469 5.71875 1.625 12.792969-3.214844 17.382813-6.0625 5.746094-9.21875 13.421875-9.421874 21.175781-.132813 4.996094.957031 10.027344 3.289062 14.59375 2.027344 3.96875 7.304688 4.863281 10.535156 1.796875l1.5625-1.484375c2.078125-1.96875 2.558594-5.039063 1.324219-7.621094-2.730469-5.71875-1.625-12.792969 3.214844-17.382812 9.964843-9.445313 12.082031-24.113281 6.128906-35.765625zm0 0" fill="#dd1265" data-original="#DD1265" class=""/><path d="m255.890625 416.042969-1.566406 1.480469c-2.074219 1.96875-2.554688 5.039062-1.320313 7.621093 2.730469 5.71875 1.625 12.792969-3.214844 17.382813-6.0625 5.746094-9.21875 13.421875-9.421874 21.175781-.132813 4.996094.957031 10.027344 3.289062 14.59375 2.027344 3.96875 7.304688 4.863281 10.535156 1.796875-4.304687-4.539062-6.359375-10.390625-6.207031-16.1875.15625-5.796875 2.515625-11.535156 7.054687-15.839844 9.082032-8.609375 9.460938-22.949218.851563-32.023437zm0 0" fill="#ba0d5c" data-original="#BA0D5C" class=""/><path d="m142.507812 399.308594c-3.429687-2.839844-8.632812-1.574219-10.382812 2.519531l-.851562 1.980469c-1.125 2.632812-.351563 5.640625 1.800781 7.523437 4.773437 4.167969 6.5625 11.101563 3.933593 17.234375-3.289062 7.675782-3.148437 15.972656-.265624 23.175782 1.855468 4.640624 4.851562 8.828124 8.800781 12.097656 3.429687 2.839844 8.632812 1.574218 10.382812-2.519532v-.003906l.851563-1.980468c1.125-2.628907.351562-5.636719-1.800782-7.519532-4.773437-4.171875-6.5625-11.105468-3.933593-17.238281 5.40625-12.621094 1.542969-26.925781-8.535157-35.269531zm0 0" fill="#8e4fd2" data-original="#8E4FD2"/><path d="m132.121094 401.828125-.847656 1.980469c-1.125 2.632812-.351563 5.640625 1.800781 7.523437 4.773437 4.167969 6.5625 11.101563 3.933593 17.234375-3.292968 7.675782-3.148437 15.972656-.265624 23.175782 1.855468 4.640624 4.851562 8.828124 8.800781 12.097656 3.429687 2.839844 8.632812 1.574218 10.382812-2.519532v-.003906c-5.75-2.460937-9.953125-7.019531-12.109375-12.402344-2.152344-5.382812-2.257812-11.589843.207032-17.339843 4.929687-11.503907-.402344-24.820313-11.902344-29.746094zm0 0" fill="#9e69e2" data-original="#9E69E2"/><path d="m354.121094 402.507812c-1.652344-4.132812-6.828125-5.507812-10.324219-2.75l-1.691406 1.335938c-2.25 1.769531-3.007813 4.78125-2.015625 7.464844 2.195312 5.945312.449218 12.890625-4.789063 17.019531-6.5625 5.164063-10.402343 12.519531-11.316406 20.226563-.589844 4.960937.039063 10.070312 1.945313 14.832031 1.652343 4.132812 6.828124 5.507812 10.324218 2.75l1.691406-1.335938c2.25-1.769531 3.007813-4.78125 2.015626-7.464843-2.195313-5.945313-.449219-12.890626 4.789062-17.019532 10.785156-8.496094 14.234375-22.910156 9.371094-35.058594zm0 0" fill="#85af12" data-original="#85AF12" class=""/><path d="m343.796875 399.757812-1.691406 1.335938c-2.25 1.769531-3.007813 4.78125-2.015625 7.464844 2.195312 5.945312.449218 12.890625-4.789063 17.019531-6.5625 5.167969-10.402343 12.519531-11.316406 20.226563-.589844 4.964843.039063 10.074218 1.945313 14.832031 1.652343 4.136719 6.828124 5.507812 10.324218 2.75-3.871094-4.914063-5.386718-10.925781-4.703125-16.6875.683594-5.757813 3.558594-11.253907 8.472657-15.125 9.828124-7.746094 11.519531-21.992188 3.773437-31.816407zm0 0" fill="#95d600" data-original="#95D600"/><path d="m330.84375 67.667969h1.523438c6.753906 0 12.230468-5.472657 12.230468-12.226563v-1.523437h8.714844v1.523437c0 6.753906 5.472656 12.226563 12.226562 12.226563h1.523438v8.714843h-1.523438c-6.753906 0-12.226562 5.476563-12.226562 12.226563v1.527344h-8.714844v-1.527344c0-6.753906-5.476562-12.226563-12.230468-12.226563h-1.523438zm0 0" fill="#fff" data-original="#FFF" class="active-path" data-old_color="#fff" style="fill:#FFE529"/><path d="m181.15625 67.667969h-1.523438c-6.753906 0-12.230468-5.472657-12.230468-12.226563v-1.523437h-8.714844v1.523437c0 6.753906-5.472656 12.226563-12.226562 12.226563h-1.523438v8.714843h1.523438c6.753906 0 12.226562 5.476563 12.226562 12.226563v1.527344h8.714844v-1.527344c0-6.753906 5.476562-12.226563 12.230468-12.226563h1.523438zm0 0" fill="#fff" data-original="#FFF" class="active-path" data-old_color="#fff" style="fill:#FFE529"/><path d="m96.777344 132.335938h-1.523438c-6.753906 0-12.230468-5.476563-12.230468-12.230469v-1.523438h-8.714844v1.523438c0 6.753906-5.472656 12.230469-12.226563 12.230469h-1.523437v8.714843h1.523437c6.753907 0 12.226563 5.472657 12.226563 12.226563v1.523437h8.714844v-1.523437c0-6.753906 5.476562-12.226563 12.230468-12.226563h1.523438zm0 0" fill="#fff" data-original="#FFF" class="active-path" data-old_color="#fff" style="fill:#FFE529"/><path d="m451.441406 132.335938h-1.523437c-6.753907 0-12.226563-5.476563-12.226563-12.230469v-1.523438h-8.714844v1.523438c0 6.753906-5.476562 12.230469-12.230468 12.230469h-1.523438v8.714843h1.523438c6.753906 0 12.230468 5.472657 12.230468 12.226563v1.523437h8.714844v-1.523437c0-6.753906 5.472656-12.226563 12.226563-12.226563h1.523437zm0 0" fill="#fff" data-original="#FFF" class="active-path" data-old_color="#fff" style="fill:#FFE529"/><path d="m279.019531 146.191406c0 12.332032-9.996093 22.328125-22.328125 22.328125-12.332031 0-22.332031-9.996093-22.332031-22.328125 0-12.332031 10-22.332031 22.332031-22.332031 12.332032 0 22.328125 10 22.328125 22.332031zm0 0" fill="#8e4fd2" data-original="#8E4FD2"/><path d="m279.019531 146.191406c0 12.328125-10 22.328125-22.328125 22.328125v-44.660156c12.328125 0 22.328125 10 22.328125 22.332031zm0 0" fill="#7038ba" data-original="#7038BA" class="" style="fill:#7038BA"/><path d="m266.191406 146.191406c0 5.25-4.25 9.5-9.5 9.5-5.242187 0-9.5-4.25-9.5-9.5s4.257813-9.5 9.5-9.5c5.25 0 9.5 4.25 9.5 9.5zm0 0" fill="#9e69e2" data-original="#9E69E2"/><path d="m266.191406 146.191406c0 5.25-4.25 9.5-9.5 9.5v-19c5.25 0 9.5 4.25 9.5 9.5zm0 0" fill="#8e4fd2" data-original="#8E4FD2"/></g> </svg>
