<?xml version="1.0"?>
<svg xmlns="http://www.w3.org/2000/svg" xmlns:xlink="http://www.w3.org/1999/xlink" version="1.1" id="Capa_1" x="0px" y="0px" viewBox="0 0 512 512" style="enable-background:new 0 0 512 512;" xml:space="preserve" width="512px" height="512px" class=""><g><path style="fill:#FEC007;" d="M512,308.448c0,99.402-80.57,179.972-179.972,179.972c-87.606,0-160.595-62.594-176.665-145.502  c-2.174-11.157-3.307-22.685-3.307-34.47c0-16.709,2.287-32.904,6.552-48.253c6.428-23.148,17.358-44.421,31.791-62.8  c0.34-0.433,0.68-0.865,1.02-1.288c32.986-41.228,83.712-67.621,140.609-67.621C431.43,128.486,512,209.056,512,308.448z" data-original="#FEC007" class=""/><path style="fill:#FE9700;" d="M227.959,270.31l-72.597,72.607c-2.174-11.157-3.307-22.685-3.307-34.47  c0-16.709,2.287-32.904,6.552-48.253c6.428-23.148,17.358-44.421,31.791-62.8c0.34-0.433,0.68-0.865,1.02-1.288v34.511h20.099  c9.436,0,17.874,5.635,21.479,14.35C236.612,253.694,234.635,263.645,227.959,270.31z" data-original="#FE9700"/><g>
	<path style="fill:#FCE790;" d="M489.464,316.179c-4.268,0-7.726-3.459-7.726-7.726c0-82.55-67.159-149.709-149.709-149.709   c-4.268,0-7.726-3.459-7.726-7.726s3.459-7.726,7.726-7.726c91.07,0,165.162,74.091,165.162,165.162   C497.191,312.72,493.732,316.179,489.464,316.179z" data-original="#FCE790"/>
	<path style="fill:#FCE790;" d="M339.754,465.89c0,4.265-3.462,7.726-7.726,7.726c-83.764,0-153.167-62.686-163.757-143.607   c-0.927-7.057-1.401-14.247-1.401-21.551c0-4.275,3.461-7.726,7.726-7.726s7.726,3.451,7.726,7.726   c0,2.452,0.062,4.893,0.175,7.314c3.822,79.159,69.434,142.391,149.531,142.391C336.292,458.164,339.754,461.625,339.754,465.89z" data-original="#FCE790"/>
</g><path style="fill:#FEC007;" d="M182.497,315.772l-14.227,14.237c-0.927-7.057-1.401-14.247-1.401-21.551  c0-4.275,3.461-7.726,7.726-7.726s7.726,3.451,7.726,7.726C182.322,310.91,182.383,313.351,182.497,315.772z" data-original="#FEC007" class=""/><path style="fill:#FE9700;" d="M455.412,308.448c0,68.146-55.238,123.385-123.385,123.385c-68.136,0-123.384-55.238-123.384-123.385  c0-6.995,0.587-13.856,1.71-20.531c2.967-17.729,9.715-34.181,19.398-48.491c22.169-32.791,59.709-54.352,102.276-54.352  C400.174,185.073,455.412,240.312,455.412,308.448z" data-original="#FE9700"/><path style="fill:#F26200;" d="M227.959,270.31l-17.606,17.606c2.967-17.729,9.715-34.181,19.398-48.491  c1.308,1.659,2.411,3.513,3.245,5.542C236.612,253.694,234.635,263.645,227.959,270.31z" data-original="#F26200" class=""/><circle style="fill:#FCE790;" cx="332.03" cy="308.45" r="102.14" data-original="#FCE790"/><g>
	<path style="fill:#FE9700;" d="M332.029,360.187c-19.988,0-36.249-13.337-36.249-29.73c0-4.268,3.459-7.726,7.726-7.726   c4.268,0,7.726,3.459,7.726,7.726c0,7.739,9.524,14.278,20.797,14.278c10.901,0,20.167-6.114,20.767-13.515   c-2.607-3.778-16.26-11.401-24.534-16.021c-20.744-11.585-32.482-18.632-32.482-28.749c0-16.393,16.262-29.73,36.249-29.73   c19.989,0,36.25,13.337,36.25,29.73c0,4.268-3.459,7.726-7.726,7.726c-4.268,0-7.726-3.459-7.726-7.726   c0-7.739-9.524-14.278-20.798-14.278c-10.9,0-20.166,6.114-20.766,13.515c2.607,3.777,16.259,11.399,24.532,16.02   c20.746,11.584,32.484,18.632,32.484,28.75C368.279,346.85,352.018,360.187,332.029,360.187z" data-original="#FE9700"/>
	<path style="fill:#FE9700;" d="M332.029,373.226c-4.268,0-7.726-3.459-7.726-7.726V251.406c0-4.268,3.459-7.726,7.726-7.726   s7.726,3.459,7.726,7.726V365.5C339.755,369.768,336.297,373.226,332.029,373.226z" data-original="#FE9700"/>
</g><g>
	<path style="fill:#69E781" d="M2.301,259.388l101.847,101.847c3.048,3.048,7.989,3.048,11.036,0l101.847-101.847   c4.916-4.916,1.434-13.322-5.518-13.322h-35.544v-89.191c0-4.31-3.494-7.804-7.804-7.804H51.167c-4.31,0-7.804,3.494-7.804,7.804   v89.191H7.82C0.867,246.066-2.615,254.472,2.301,259.388z" data-original="#FF2796" class="active-path" data-old_color="#FF2796"/>
	<path style="fill:#69E781" d="M133.454,131.979c-4.267,0-7.726-3.459-7.726-7.726V75.936c0-4.268,3.459-7.726,7.726-7.726   s7.726,3.459,7.726,7.726v48.317C141.18,128.521,137.721,131.979,133.454,131.979z" data-original="#FF2796" class="active-path" data-old_color="#FF2796"/>
	<path style="fill:#69E781" d="M109.666,131.979c-4.267,0-7.726-3.459-7.726-7.726V31.306c0-4.268,3.459-7.726,7.726-7.726   s7.726,3.459,7.726,7.726v92.946C117.393,128.521,113.933,131.979,109.666,131.979z" data-original="#FF2796" class="active-path" data-old_color="#FF2796"/>
	<path style="fill:#69E781" d="M85.879,131.979c-4.267,0-7.726-3.459-7.726-7.726V75.936c0-4.268,3.459-7.726,7.726-7.726   s7.726,3.459,7.726,7.726v48.317C93.605,128.521,90.146,131.979,85.879,131.979z" data-original="#FF2796" class="active-path" data-old_color="#FF2796"/>
</g></g> </svg>
